#N canvas 441 191 478 334 12;
#X obj 42 18 inlet;
#X obj 198 103 r LoopLength;
#X obj 69 292 outlet;
#X obj 149 192 int 0;
#X obj 216 191 + 1;
#X obj 204 252 sel 23;
#X obj 256 202 - 1;
#X obj 197 134 t b b f;
#X obj 189 161 0;
#X obj 169 222 t f f;
#X obj 172 284 t b b b;
#X msg 68 148 0;
#X obj 173 53 r beatpulse;
#X obj 118 80 tgl 19 0 empty empty empty 0 -10 0 12 #fcfcfc #000000 #000000 0 1;
#X obj 118 115 spigot;
#X obj 44 63 t b b;
#X msg 106 50 1;
#X msg 138 51 0;
#X connect 0 0 15 0;
#X connect 1 0 7 0;
#X connect 3 0 9 0;
#X connect 4 0 3 1;
#X connect 5 0 10 0;
#X connect 6 0 5 1;
#X connect 7 1 8 0;
#X connect 7 2 6 0;
#X connect 8 0 3 1;
#X connect 9 0 5 0;
#X connect 9 1 4 0;
#X connect 10 0 2 0;
#X connect 10 1 8 0;
#X connect 10 2 17 0;
#X connect 11 0 3 0;
#X connect 12 0 14 0;
#X connect 13 0 14 1;
#X connect 14 0 3 0;
#X connect 15 0 16 0;
#X connect 15 1 11 0;
#X connect 16 0 13 0;
#X connect 17 0 13 0;
