#N canvas 96 96 450 300 12;
#X obj 165 113 r beatpulse;
#X text 116 67 at next beat;
#X obj 201 170 select 1;
#X msg 192 146 0;
#X msg 152 143 1;
#X obj 151 167 int 0;
#X obj 151 195 sel 1;
#X obj 101 113 inlet;
#X obj 134 239 outlet;
#X connect 0 0 5 0;
#X connect 2 0 3 0;
#X connect 3 0 5 1;
#X connect 4 0 5 1;
#X connect 5 0 2 0;
#X connect 5 0 6 0;
#X connect 6 0 8 0;
#X connect 7 0 4 0;
