#N canvas 444 285 927 617 10;
#X msg 43 455 stop;
#X obj 43 518 timer;
#X obj 557 393 f;
#X obj 922 422 bng 15 250 50 0 empty empty empty 17 7 0 10 #fcfcfc #000000 #000000;
#X msg 557 440 0 \$1;
#X msg 604 464 stop;
#X obj 1093 532 tgl 15 0 empty empty empty 17 7 0 10 #fcfcfc #000000 #000000 0 1;
#X obj 922 547 spigot;
#X obj 984 464 spigot;
#X obj 1093 570 == 0;
#X obj 29 20 inlet~;
#X text 28 5 Audio In;
#X obj 556 600 outlet~;
#X text 67 271 play loop from beginning;
#X obj 43 412 spigot;
#X msg 213 418 start;
#X obj 43 479 bng 15 250 50 0 empty empty empty 17 7 0 10 #fcfcfc #000000 #000000;
#X msg 121 383 1;
#X msg 76 385 0;
#X obj 43 358 t b b;
#X floatatom 43 569 10 0 0 0 - - - 0;
#X floatatom 557 418 10 0 0 0 - - - 0;
#X obj 179 366 t b b b b;
#X text 956 116 play once;
#X obj 557 346 bng 15 250 50 0 empty empty empty 17 7 0 10 #fcfcfc #000000 #000000;
#X text 557 287 PLAYER;
#X text 1223 322 10 seconds loop;
#X text 1214 359 Sample Rate: 48KHz;
#X text 42 302 RECORDER;
#X text 938 345 LOOPER;
#X text 956 67 INPUTS;
#X msg 1093 500 0;
#X obj 484 182 bng 15 250 50 0 empty empty empty 17 7 0 10 #fcfcfc #000000 #000000;
#X obj 495 230 bng 15 250 50 0 empty empty empty 17 7 0 10 #fcfcfc #000000 #000000;
#X obj 381 303 bng 15 250 50 0 empty empty empty 17 7 0 10 #fcfcfc #000000 #000000;
#X obj 1139 148 bng 15 250 50 0 empty empty empty 17 7 0 10 #fcfcfc #000000 #000000;
#X obj 228 324 bng 15 250 50 0 empty empty empty 17 7 0 10 #fcfcfc #000000 #000000;
#X obj 958 157 bng 15 250 50 0 empty empty empty 17 7 0 10 #fcfcfc #000000 #000000;
#X text 1051 116 direct;
#X obj 575 574 *~;
#X text 366 284 stop now;
#X text 1108 123 stop at the end of loop;
#X obj 1142 500 loadbang;
#X obj 28 69 s~ AudioIn\$1;
#X obj 485 207 s StartRecording\$1;
#X obj 495 254 s StopRecording\$1;
#X obj 380 329 s StopPlayLoop\$1;
#X obj 1139 172 s StopPlayLoopSync\$1;
#X obj 229 303 s PlayLoop\$1;
#X obj 958 181 s PlayOnce\$1;
#X obj 1053 181 s Direct\$1;
#X obj 1190 340 table LoopInMemory\$1 480000;
#X obj 43 336 r StopRecording\$1;
#X obj 179 345 r StartRecording\$1;
#X obj 230 392 s StopPlayLoop\$1;
#X obj 232 444 r~ AudioIn\$1;
#X obj 213 472 tabwrite~ LoopInMemory\$1;
#X obj 101 518 s RecordStop\$1;
#X obj 43 591 s LoopLength\$1;
#X obj 557 319 r Play\$1;
#X obj 572 368 r LoopLength\$1;
#X obj 604 440 r StopPlayLoop\$1;
#X obj 557 496 tabplay~ LoopInMemory\$1;
#X obj 576 522 r~ AudioIn\$1;
#X obj 692 519 s PlayLoop\$1;
#X obj 590 548 r Direct\$1;
#X obj 985 383 r PlayLoop\$1;
#X obj 986 411 r PlayOnce\$1;
#X obj 1093 465 r StopPlayLoopSync\$1;
#X obj 922 571 s Play\$1;
#X obj 195 46 inlet;
#X text 190 20 Pad input;
#X obj 169 89 sel 0;
#X obj 154 154 float \$1;
#X obj 294 83 timer;
#X text 285 49 hold;
#X obj 204 116 t b b;
#X obj 158 113 t b b;
#X obj 293 107 > 1000;
#X obj 364 27 sel 1;
#X text 552 17 Recordiong;
#X obj 383 182 atnextbeat;
#X obj 392 158 spigot;
#X obj 39 133 r StartRecording\$1;
#X text 45 108 Flash on beat;
#X obj 380 239 afterLoopLength;
#X text 1188 286 TODO make this depend on PPB and LoopLength, f 25;
#X obj 245 184 spigot;
#X text 180 228 Playing;
#X obj 326 181 tgl 16 0 empty empty empty 0 -8 0 10 #fcfcfc #000000 #000000 0 1;
#X obj 391 209 t b b b;
#X msg 310 219 0;
#X obj 154 177 s btn-flash;
#X obj 632 173 float \$1;
#X obj 247 219 loadbang;
#X obj 242 277 atnextbeat;
#X obj 270 250 sel 1;
#X obj 695 174 s btn-off;
#X obj 527 20 tgl 16 0 empty empty empty 0 -8 0 10 #fcfcfc #000000 #000000 0 1;
#X text 565 84 Playing;
#X obj 535 149 tgl 16 0 empty empty empty 0 -8 0 10 #fcfcfc #000000 #000000 0 1;
#X text 569 147 Clear;
#X msg 490 149 1;
#X obj 414 120 loadbang;
#X msg 483 14 1;
#X obj 579 31 r beatpulse;
#X obj 544 52 spigot;
#X obj 636 55 float \$1;
#X obj 697 54 s btn-flash;
#X msg 489 36 0;
#X obj 425 36 loadbang;
#X obj 658 200 float \$1;
#X obj 721 201 s btn-on;
#X obj 537 89 tgl 16 0 empty empty empty 0 -8 0 10 #fcfcfc #000000 #000000 0 1;
#X obj 603 104 r beatpulse;
#X obj 568 125 spigot;
#X obj 666 131 float \$1;
#X obj 739 133 s btn-flash;
#X obj 293 136 expr $f1*(-1)+1;
#X msg 507 169 0;
#X msg 330 240 1;
#X obj 423 260 t b b b b;
#X obj 316 279 atnextbeat;
#X obj 629 199 bang;
#X obj 367 61 t b b;
#X obj 282 161 tgl 16 0 empty empty empty 0 -8 0 10 #fcfcfc #000000 #000000 0 1;
#X obj 419 70 t b b b b;
#X obj 43 543 * 44.1;
#X obj 810 11 r light-prog;
#X obj 560 170 f;
#X obj 794 38 sel 1;
#X obj 842 40 t b;
#X text 706 27 prog selected;
#X text 870 40 prog unselected;
#X obj 798 94 tgl 18 0 empty empty empty 0 -9 0 10 #fcfcfc #000000 #000000 0 1;
#X msg 794 70 1;
#X msg 827 68 0;
#X obj 239 45 spigot;
#X obj 852 102 loadbang;
#X obj 621 127 spigot;
#X obj 591 52 spigot;
#X obj 751 89 t b;
#X obj 586 170 sel 1 0;
#X obj 206 67 unpack f f;
#X connect 0 0 16 0;
#X connect 0 0 56 0;
#X connect 1 0 127 0;
#X connect 2 0 21 0;
#X connect 3 0 7 0;
#X connect 3 0 8 0;
#X connect 4 0 62 0;
#X connect 5 0 62 0;
#X connect 6 0 7 1;
#X connect 6 0 9 0;
#X connect 7 0 69 0;
#X connect 8 0 6 0;
#X connect 9 0 8 1;
#X connect 10 0 43 0;
#X connect 14 0 0 0;
#X connect 15 0 56 0;
#X connect 16 0 1 1;
#X connect 16 0 57 0;
#X connect 17 0 14 1;
#X connect 18 0 14 1;
#X connect 19 0 18 0;
#X connect 19 1 14 0;
#X connect 20 0 58 0;
#X connect 21 0 4 0;
#X connect 22 0 17 0;
#X connect 22 1 1 0;
#X connect 22 2 15 0;
#X connect 22 3 54 0;
#X connect 24 0 2 0;
#X connect 31 0 6 0;
#X connect 32 0 44 0;
#X connect 33 0 45 0;
#X connect 34 0 46 0;
#X connect 35 0 47 0;
#X connect 36 0 48 0;
#X connect 37 0 49 0;
#X connect 39 0 12 0;
#X connect 42 0 6 0;
#X connect 52 0 19 0;
#X connect 53 0 22 0;
#X connect 55 0 56 0;
#X connect 59 0 24 0;
#X connect 60 0 2 1;
#X connect 61 0 5 0;
#X connect 62 0 12 0;
#X connect 62 1 64 0;
#X connect 63 0 39 0;
#X connect 65 0 39 1;
#X connect 66 0 3 0;
#X connect 67 0 31 0;
#X connect 67 0 69 0;
#X connect 68 0 31 0;
#X connect 70 0 137 0;
#X connect 72 0 77 0;
#X connect 72 1 76 0;
#X connect 73 0 92 0;
#X connect 74 0 78 0;
#X connect 76 1 74 0;
#X connect 77 0 73 0;
#X connect 77 1 74 1;
#X connect 78 0 79 0;
#X connect 79 0 126 0;
#X connect 79 1 124 0;
#X connect 81 0 90 0;
#X connect 82 0 81 0;
#X connect 85 0 121 0;
#X connect 87 0 89 0;
#X connect 89 0 96 0;
#X connect 89 0 113 0;
#X connect 90 0 91 0;
#X connect 90 1 85 0;
#X connect 90 2 44 0;
#X connect 90 2 104 0;
#X connect 91 0 89 0;
#X connect 93 0 97 0;
#X connect 94 0 91 0;
#X connect 95 0 48 0;
#X connect 96 0 95 0;
#X connect 96 1 122 0;
#X connect 98 0 106 1;
#X connect 100 0 82 1;
#X connect 100 0 118 0;
#X connect 100 0 129 0;
#X connect 102 0 100 0;
#X connect 103 0 102 0;
#X connect 104 0 98 0;
#X connect 105 0 106 0;
#X connect 106 0 140 0;
#X connect 107 0 108 0;
#X connect 109 0 98 0;
#X connect 110 0 109 0;
#X connect 111 0 112 0;
#X connect 113 0 115 1;
#X connect 114 0 115 0;
#X connect 115 0 139 0;
#X connect 116 0 117 0;
#X connect 118 0 125 0;
#X connect 119 0 100 0;
#X connect 120 0 89 0;
#X connect 121 0 109 0;
#X connect 121 1 119 0;
#X connect 121 2 120 0;
#X connect 121 3 45 0;
#X connect 122 0 34 0;
#X connect 123 0 111 0;
#X connect 124 0 87 0;
#X connect 124 1 82 0;
#X connect 125 0 87 1;
#X connect 126 0 102 0;
#X connect 126 1 91 0;
#X connect 126 2 46 0;
#X connect 126 3 45 0;
#X connect 127 0 20 0;
#X connect 128 0 130 0;
#X connect 129 0 142 0;
#X connect 130 0 135 0;
#X connect 130 1 131 0;
#X connect 131 0 136 0;
#X connect 134 0 137 1;
#X connect 134 0 139 1;
#X connect 134 0 140 1;
#X connect 135 0 134 0;
#X connect 135 0 141 0;
#X connect 136 0 134 0;
#X connect 137 0 143 0;
#X connect 138 0 135 0;
#X connect 139 0 116 0;
#X connect 140 0 107 0;
#X connect 141 0 129 0;
#X connect 142 0 93 0;
#X connect 142 1 123 0;
#X connect 143 0 72 0;
