#N canvas 784 97 835 550 12;
#X text 141 50 Enter native mode;
#N canvas 41 136 933 600 native_mode 0;
#X obj 74 482 midiout;
#X msg 74 184 240 \, 66 \, 64 \, 110 \, 8 \, 0 \, 0 \, 1 \, 247;
#X msg 99 213 240 \, 66 \, 64 \, 110 \, 8 \, 0 \, 0 \, 0 \, 247;
#X msg 159 272 240 \, 66 \, 64 \, 110 \, 8 \, 63 \, 42 \, 0 \, 0 \, 5 \, 9 \, 9 \, 16 \, 17 \, 127 \, 127 \, 3 \, 9 \, 9 \, 9 \, 9 \, 9 \, 9 \, 9 \, 9 \, 9 \, 9 \, 9 \, 9 \, 9 \, 9 \, 9 \, 9 \, 1 \, 2 \, 3 \, 4 \, 5 \, 6 \, 7 \, 8 \, 9 \, 10 \, 11 \, 12 \, 13 \, 14 \, 15 \, 16 \, 247;
#X msg 140 348 240 \, 66 \, 64 \, 110 \, 8 \, 63 \, 10 \, 1 \, 127 \, 127 \, 127 \, 127 \, 127 \, 3 \, 83 \, 69 \, 89 \, 247;
#X obj 106 126 bng 30 250 50 0 empty empty start 0 -6 0 10 #00fc04 #000000 #000000;
#X msg 122 411 240 \, 66 \, 64 \, 110 \, 8 \, 63 \, 10 \, 1 \, 0 \, 0 \, 0 \, 0 \, 0 \, 3 \, 83 \, 69 \, 89 \, 247;
#X obj 149 124 bng 30 250 50 0 empty empty stop 0 -6 0 10 #fc0400 #000000 #000000;
#X text 331 181 start native mode;
#X text 341 214 stop native mode;
#X text 589 291 set sysex and midi;
#X text 577 354 turn on all lights;
#X text 551 416 turn off all lights;
#X obj 159 248 delay 250;
#X obj 140 323 delay 250;
#X obj 122 388 delay 250;
#X symbolatom 156 4 10 0 0 0 - - - 0;
#X floatatom 104 0 5 0 0 0 - - - 0;
#X obj 104 28 spigot;
#X obj 104 56 sel F4 F5;
#X obj 34 90 inlet;
#X obj 201 95 inlet;
#X text 35 63 1;
#X text 206 69 2;
#X connect 1 0 0 0;
#X connect 1 0 13 0;
#X connect 2 0 0 0;
#X connect 3 0 0 0;
#X connect 4 0 0 0;
#X connect 5 0 1 0;
#X connect 6 0 0 0;
#X connect 7 0 2 0;
#X connect 13 0 3 0;
#X connect 13 0 14 0;
#X connect 14 0 4 0;
#X connect 14 0 15 0;
#X connect 15 0 6 0;
#X connect 16 0 18 0;
#X connect 17 0 18 1;
#X connect 18 0 19 0;
#X connect 19 0 5 0;
#X connect 19 1 7 0;
#X connect 20 0 5 0;
#X connect 21 0 7 0;
#X coords 0 -1 1 1 85 60 1 100 100;
#X restore 22 49 pd native_mode;
#X obj 16 12 loadbang;
#N canvas 913 340 671 548 raw_MIDI 0;
#X floatatom 122 19 0 0 0 0 - - - 0;
#X floatatom 155 20 3 0 0 0 - - - 0;
#X obj 110 -6 midiin;
#X obj 100 118 + 1;
#X obj 54 118 int 1;
#X msg 16 89 0;
#X obj 23 145 % 13;
#X obj 111 171 pack f f;
#X obj 68 205 route 1 2 3 4 5 6 7 8 9 10 11 12;
#X floatatom 9 244 5 0 0 0 - - - 0;
#X floatatom 18 268 5 0 0 0 - - - 0;
#X floatatom 51 245 5 0 0 0 - - - 0;
#X floatatom 67 269 5 0 0 0 - - - 0;
#X floatatom 103 247 5 0 0 0 - - - 0;
#X floatatom 140 267 5 0 0 0 - - - 0;
#X floatatom 170 250 5 0 0 0 - - - 0;
#X floatatom 210 267 5 0 0 0 - - - 0;
#X floatatom 224 243 5 0 0 0 - - - 0;
#X floatatom 258 271 5 0 0 0 - - - 0;
#X floatatom 272 243 5 0 0 0 - - - 0;
#X floatatom 309 272 5 0 0 0 - - - 0;
#X obj 19 169 select 12;
#X text 187 65 if delay is more than some miliseconds reset to 0, f 26;
#X obj 207 106 timer;
#X obj 209 131 > 5;
#X obj 240 136 sel 1;
#X obj 98 81 t b f b b;
#X obj 533 209 s sideButs;
#X obj 227 293 t b f;
#X obj 144 318 pack 0 f f f;
#X obj 143 353 route 0;
#X text 443 169 pads;
#X obj 448 210 route 69;
#X obj 453 322 / 64;
#X floatatom 462 378 5 0 0 0 - - - 0;
#X obj 445 249 unpack f f;
#X floatatom 532 376 5 0 0 0 - - - 0;
#X obj 455 351 int;
#X obj 357 341 mod 64;
#X floatatom 360 367 5 0 0 0 - - - 0;
#X obj 379 275 t f f;
#X text 354 391 pad no;
#X text 459 400 on/off;
#X text 517 397 velocity;
#X text 455 439 maybe multiply if I want velocity, f 17;
#X obj 369 425 pack f f f;
#X text 530 177 the rest;
#X obj 361 463 s pads;
#X connect 2 0 0 0;
#X connect 2 0 26 0;
#X connect 2 1 1 0;
#X connect 3 0 4 1;
#X connect 4 0 3 0;
#X connect 4 0 6 0;
#X connect 4 0 7 0;
#X connect 5 0 4 0;
#X connect 6 0 21 0;
#X connect 7 0 8 0;
#X connect 8 0 9 0;
#X connect 8 1 10 0;
#X connect 8 2 11 0;
#X connect 8 3 12 0;
#X connect 8 4 13 0;
#X connect 8 5 14 0;
#X connect 8 5 29 1;
#X connect 8 6 15 0;
#X connect 8 6 29 2;
#X connect 8 7 16 0;
#X connect 8 7 28 0;
#X connect 8 8 17 0;
#X connect 8 9 18 0;
#X connect 8 10 19 0;
#X connect 8 11 20 0;
#X connect 21 0 5 0;
#X connect 23 0 24 0;
#X connect 24 0 25 0;
#X connect 25 0 5 0;
#X connect 26 0 4 0;
#X connect 26 1 7 1;
#X connect 26 2 23 0;
#X connect 26 3 23 1;
#X connect 28 0 29 0;
#X connect 28 1 29 3;
#X connect 29 0 30 0;
#X connect 30 0 32 0;
#X connect 32 0 35 0;
#X connect 32 1 27 0;
#X connect 33 0 37 0;
#X connect 35 0 40 0;
#X connect 35 1 36 0;
#X connect 35 1 45 2;
#X connect 37 0 34 0;
#X connect 37 0 45 1;
#X connect 38 0 39 0;
#X connect 38 0 45 0;
#X connect 40 0 38 0;
#X connect 40 1 33 0;
#X connect 45 0 47 0;
#X restore 307 14 pd raw_MIDI;
#N canvas 865 351 882 451 clock 0;
#X obj 208 178 bng 19 250 50 0 empty empty empty 0 -10 0 12 #fcfcfc #000000 #000000;
#X text 197 151 Start;
#X obj 265 178 bng 19 250 50 0 empty empty empty 0 -10 0 12 #fcfcfc #000000 #000000;
#X text 316 151 Stop;
#X obj 321 178 bng 19 250 50 0 empty empty empty 0 -10 0 12 #fcfcfc #000000 #000000;
#X text 246 151 Continue;
#X obj 218 309 outlet;
#X obj 280 233 outlet;
#X obj 336 234 outlet;
#X obj 393 234 outlet;
#X obj 292 29 midirealtimein;
#X obj 411 33 sel 248 250 251 252;
#X obj 242 120 tgl 19 0 empty empty empty 0 -10 0 12 #fcfcfc #000000 #000000 0 1;
#X text 151 120 Use MIDI in;
#X obj 460 150 loadbang;
#X obj 593 84 * 1;
#X msg 631 64 1;
#X obj 660 121 tgl 19 0 empty empty empty 0 -10 0 12 #fcfcfc #000000 #000000 0 1;
#X text 693 116 Using MIDI in;
#X text 433 113 Default;
#X obj 621 43 spigot;
#X text 724 40 Assume midi time is available after first pulse, f 23;
#X msg 680 44 1;
#X obj 628 88 int 0;
#N canvas 299 262 450 300 switch 0;
#X obj 61 46 inlet;
#X obj 124 44 inlet;
#X obj 184 42 inlet;
#X text 44 17 Stream 1;
#X text 112 16 Stream 2;
#X text 179 16 Toggle 1 & 2;
#X obj 97 148 outlet;
#X obj 72 113 spigot;
#X obj 136 116 spigot;
#X obj 159 87 - 1;
#X connect 0 0 7 0;
#X connect 1 0 8 0;
#X connect 2 0 9 0;
#X connect 2 0 7 1;
#X connect 7 0 6 0;
#X connect 8 0 6 0;
#X connect 9 0 8 1;
#X restore 270 84 pd switch;
#N canvas 299 262 450 300 switch 0;
#X obj 61 46 inlet;
#X obj 124 44 inlet;
#X obj 184 42 inlet;
#X text 44 17 Stream 1;
#X text 112 16 Stream 2;
#X text 179 16 Toggle 1 & 2;
#X obj 97 148 outlet;
#X obj 72 113 spigot;
#X obj 136 116 spigot;
#X obj 159 87 - 1;
#X connect 0 0 7 0;
#X connect 1 0 8 0;
#X connect 2 0 9 0;
#X connect 2 0 7 1;
#X connect 7 0 6 0;
#X connect 8 0 6 0;
#X connect 9 0 8 1;
#X restore 343 92 pd switch;
#X text 276 51 Pulse;
#X text 356 50 Start;
#X text 509 49 Stop;
#X text 418 51 Continue;
#N canvas 299 262 450 300 switch 0;
#X obj 61 46 inlet;
#X obj 124 44 inlet;
#X obj 184 42 inlet;
#X text 44 17 Stream 1;
#X text 112 16 Stream 2;
#X text 179 16 Toggle 1 & 2;
#X obj 97 148 outlet;
#X obj 72 113 spigot;
#X obj 136 116 spigot;
#X obj 159 87 - 1;
#X connect 0 0 7 0;
#X connect 1 0 8 0;
#X connect 2 0 9 0;
#X connect 2 0 7 1;
#X connect 7 0 6 0;
#X connect 8 0 6 0;
#X connect 9 0 8 1;
#X restore 418 92 pd switch;
#N canvas 299 262 450 300 switch 0;
#X obj 61 46 inlet;
#X obj 124 44 inlet;
#X obj 184 42 inlet;
#X text 44 17 Stream 1;
#X text 112 16 Stream 2;
#X text 179 16 Toggle 1 & 2;
#X obj 97 148 outlet;
#X obj 72 113 spigot;
#X obj 136 116 spigot;
#X obj 159 87 - 1;
#X connect 0 0 7 0;
#X connect 1 0 8 0;
#X connect 2 0 9 0;
#X connect 2 0 7 1;
#X connect 7 0 6 0;
#X connect 8 0 6 0;
#X connect 9 0 8 1;
#X restore 491 92 pd switch;
#X text 368 6 MIDI in;
#X text 41 212 Own Clock;
#X text 355 117 BPM;
#X floatatom 312 118 5 0 0 0 - - - 0;
#X obj 29 236 expr (60000/$f1/24);
#X obj 64 305 metro 20.883;
#X obj 35 265 expr ($f1-1)*(-1);
#X obj 131 71 inlet;
#X obj 347 66 inlet;
#X obj 421 65 inlet;
#X obj 497 65 inlet;
#X obj 636 224 int 1;
#X obj 649 338 timer;
#X obj 686 223 + 1;
#X text 622 170 Calculate bpm;
#X obj 640 261 % 5;
#X obj 682 260 select 4;
#X msg 637 201 0;
#X obj 649 302 sel 1;
#X obj 709 303 sel 4;
#X obj 651 398 int;
#X obj 168 179 tgl 19 0 empty empty empty 0 -10 0 12 #fcfcfc #000000 #000000 0 1;
#X obj 684 72 t b f;
#X obj 651 366 expr 1000/($f1/60)/8;
#X text 149 150 Clock;
#X msg 434 185 120, f 4;
#X text 69 404 This should be turned off when midi in is available;
#X msg 92 341 1;
#X msg 88 370 0;
#X msg 657 13 0;
#X msg 423 156 1;
#X obj 206 279 s MIDIpulse;
#X obj 198 233 t b b;
#X connect 0 0 7 0;
#X connect 0 0 59 0;
#X connect 2 0 8 0;
#X connect 4 0 9 0;
#X connect 4 0 60 0;
#X connect 10 0 11 0;
#X connect 11 0 20 0;
#X connect 11 0 24 0;
#X connect 11 0 43 0;
#X connect 11 1 25 0;
#X connect 11 2 30 0;
#X connect 11 3 31 0;
#X connect 12 0 54 0;
#X connect 14 0 62 0;
#X connect 14 0 57 0;
#X connect 14 0 61 0;
#X connect 15 0 17 0;
#X connect 15 0 31 2;
#X connect 15 0 30 2;
#X connect 15 0 25 2;
#X connect 15 0 24 2;
#X connect 15 0 38 0;
#X connect 16 0 23 0;
#X connect 20 0 22 0;
#X connect 20 0 16 0;
#X connect 22 0 20 1;
#X connect 23 0 15 0;
#X connect 24 0 64 0;
#X connect 25 0 0 0;
#X connect 30 0 2 0;
#X connect 31 0 4 0;
#X connect 35 0 36 0;
#X connect 36 0 37 1;
#X connect 37 0 24 1;
#X connect 38 0 53 0;
#X connect 39 0 35 0;
#X connect 40 0 25 1;
#X connect 41 0 30 1;
#X connect 42 0 31 1;
#X connect 43 0 45 0;
#X connect 43 0 47 0;
#X connect 44 0 55 0;
#X connect 45 0 43 1;
#X connect 47 0 48 0;
#X connect 47 0 50 0;
#X connect 48 0 49 0;
#X connect 49 0 43 0;
#X connect 50 0 44 0;
#X connect 50 1 51 0;
#X connect 51 0 44 1;
#X connect 52 0 35 0;
#X connect 53 0 37 0;
#X connect 54 0 15 0;
#X connect 54 1 15 1;
#X connect 55 0 52 0;
#X connect 57 0 35 0;
#X connect 59 0 53 0;
#X connect 60 0 53 0;
#X connect 61 0 20 1;
#X connect 62 0 12 0;
#X connect 64 0 63 0;
#X connect 64 1 6 0;
#X coords 0 -1 1 1 300 100 1 100 100;
#X restore 29 228 pd clock;
#N canvas 968 191 813 557 set 0;
#X obj 140 76 inlet;
#X obj 314 205 realtime;
#X obj 263 148 t b b;
#X obj 153 201 +;
#X obj 126 200 f;
#X msg 148 172 1;
#X obj 359 178 spigot;
#X obj 126 285 > 1;
#X obj 618 330 sel 1;
#X msg 121 172 0;
#X obj 642 195 metro 1;
#X obj 642 251 +;
#X obj 618 251 f;
#X msg 642 215 1;
#X msg 614 215 0;
#X obj 172 255 sel 1;
#X obj 642 170 tgl 15 0 empty empty empty 17 7 0 10 #fcfcfc #000000 #000000 0 1;
#X obj 314 350 +;
#X obj 288 350 f;
#X obj 618 282 spigot;
#X obj 288 402 /;
#X obj 199 361 - 1;
#X obj 305 506 outlet;
#X obj 103 118 bng 15 250 50 0 empty empty empty 17 7 0 10 #fcfcfc #000000 #000000;
#X floatatom 410 502 12 0 0 0 - - - 0;
#X obj 126 306 s TAP_not_first;
#X obj 392 156 r TAP_not_first;
#X obj 671 253 r TAP_not_first;
#X obj 172 277 s TAP_start;
#X obj 642 148 r TAP_start;
#X obj 288 439 sel 0;
#X obj 618 311 > 3000;
#X obj 618 351 s TAP_finish;
#X obj 614 125 r TAP_finish;
#X obj 121 149 r TAP_finish;
#X msg 288 329 0;
#X obj 288 306 r TAP_finish;
#X text 500 24 A timer gets triggered and reset every time;
#X text 499 38 the inlet receives a bang. If nothing happens;
#X text 498 53 afterwards for 3000 ms \, the "tempo" is considered;
#X text 498 68 definitive \, and everything gets reset.;
#X text 498 90 comment;
#X text 12 189 Count the number;
#X text 12 201 of bangs received.;
#X text 385 199 Measure the time between;
#X text 385 212 two bangs (making sure that;
#X text 386 223 we only start measuring at;
#X text 386 235 the second bang).;
#X text 358 342 Sum the measured durations...;
#X text 336 403 ... and divide it by the number of bangs-1;
#X text 336 417 to get the average time between 2 bangs.;
#X text 558 490 Pierre Massat \, Guitar Extended \, 2013;
#X text 6 2 "Tap tempo" : we don't measure the tempo;
#X text 5 16 here \, but the duration between 2 beats (bangs).;
#X text 5 30 This is used later to set the length of the loop.;
#X obj 286 472 expr 1000/($f1/60);
#X obj 361 63 route 72 67;
#X obj 363 87 route 1;
#X obj 366 114 / 127;
#X text 352 8 message button;
#X obj 500 112 s btn-flash;
#X msg 465 112 17;
#X obj 360 40 r sideButs;
#X obj 417 113 sel 1;
#X obj 281 117 sel 1;
#X text 118 115 Tap Tempo;
#X connect 0 0 2 0;
#X connect 1 0 17 0;
#X connect 2 0 1 0;
#X connect 2 1 5 0;
#X connect 2 1 6 0;
#X connect 2 1 14 0;
#X connect 3 0 4 0;
#X connect 4 0 3 1;
#X connect 4 0 7 0;
#X connect 4 0 21 0;
#X connect 4 0 15 0;
#X connect 5 0 3 0;
#X connect 6 0 1 1;
#X connect 7 0 25 0;
#X connect 8 0 32 0;
#X connect 9 0 4 0;
#X connect 10 0 13 0;
#X connect 11 0 12 0;
#X connect 12 0 11 1;
#X connect 12 0 19 0;
#X connect 13 0 11 0;
#X connect 14 0 12 0;
#X connect 15 0 28 0;
#X connect 16 0 10 0;
#X connect 17 0 18 0;
#X connect 18 0 17 1;
#X connect 18 0 20 0;
#X connect 19 0 31 0;
#X connect 20 0 30 0;
#X connect 21 0 20 1;
#X connect 23 0 2 0;
#X connect 26 0 6 1;
#X connect 27 0 19 1;
#X connect 29 0 16 0;
#X connect 30 1 55 0;
#X connect 31 0 8 0;
#X connect 33 0 16 0;
#X connect 34 0 9 0;
#X connect 35 0 18 0;
#X connect 36 0 35 0;
#X connect 55 0 22 0;
#X connect 55 0 24 0;
#X connect 56 0 57 0;
#X connect 57 0 58 0;
#X connect 58 0 63 0;
#X connect 58 0 64 0;
#X connect 61 0 60 0;
#X connect 62 0 56 0;
#X connect 63 0 61 0;
#X connect 64 0 2 0;
#X coords 0 -1 1 1 85 40 1 100 100;
#X restore 29 183 pd set tempo;
#X obj 248 410 clone LoopPlayer 16;
#X text 414 70 Beats;
#N canvas 190 200 735 485 beat_devision 0;
#X obj 157 231 route 0 1 2 3 4 5 6;
#X obj 126 315 expr 4*24/$f1;
#X obj 140 344 s PPB;
#X obj 269 315 expr 24*8/3/$f1;
#X msg 123 264 4;
#X msg 153 264 8;
#X msg 183 264 16;
#X msg 123 289 4;
#X msg 153 289 8;
#X msg 183 289 16;
#X msg 213 264 32;
#X msg 213 289 32;
#X msg 256 289 4;
#X msg 287 289 8;
#X msg 314 289 16;
#X obj 330 199 + 1;
#X obj 364 199 - 1;
#X obj 323 139 select 1 127;
#X obj 348 232 max 0;
#X msg 256 264 4t;
#X msg 285 264 8t;
#X msg 314 264 16t;
#X obj 410 283 s lcd;
#X obj 477 283 symbol;
#X obj 201 195 min 6;
#X msg 29 284 symbol \$1^;
#X obj 303 85 spigot;
#X obj 449 53 route 2 15 12 11;
#X obj 443 89 / 127;
#X obj 478 86 / 127;
#X obj 520 88 / 127;
#X obj 567 88 / 127;
#X obj 441 122 tgl 19 0 empty empty empty 0 -10 0 12 #fcfcfc #000000 #000000 0 1;
#X obj 484 118 tgl 19 0 empty empty empty 0 -10 0 12 #fcfcfc #000000 #000000 0 1;
#X obj 526 120 tgl 19 0 empty empty empty 0 -10 0 12 #fcfcfc #000000 #000000 0 1;
#X obj 563 121 tgl 19 0 empty empty empty 0 -10 0 12 #fcfcfc #000000 #000000 0 1;
#X obj 468 165 +;
#X obj 529 172 +;
#X obj 483 142 t b f;
#X obj 527 143 t b f;
#X obj 575 144 t b f;
#X obj 575 171 +;
#X obj 580 232 tgl 19 0 empty empty empty 0 -10 0 12 #fcfcfc #000000 #000000 0 1;
#X text 611 228 Nothing pressed;
#X obj 301 8 r sideButs;
#X text 217 44 Encoder;
#X obj 92 188 loadbang;
#X symbolatom 108 118 10 0 0 0 - - - 0;
#X obj 275 147 f 0;
#X obj 330 168 f 0;
#X obj 364 167 f 0;
#X msg 158 195 0;
#X obj 300 40 route 72 67;
#X obj 306 112 route 0;
#X obj 573 202 == 0;
#X obj 474 220 loadbang;
#X msg 529 250 1;
#X connect 0 0 4 0;
#X connect 0 1 5 0;
#X connect 0 2 6 0;
#X connect 0 3 10 0;
#X connect 0 4 19 0;
#X connect 0 5 20 0;
#X connect 0 6 21 0;
#X connect 1 0 2 0;
#X connect 3 0 2 0;
#X connect 4 0 7 0;
#X connect 4 0 22 0;
#X connect 4 0 25 0;
#X connect 5 0 8 0;
#X connect 5 0 22 0;
#X connect 5 0 25 0;
#X connect 6 0 9 0;
#X connect 6 0 22 0;
#X connect 6 0 25 0;
#X connect 7 0 1 0;
#X connect 8 0 1 0;
#X connect 9 0 1 0;
#X connect 10 0 11 0;
#X connect 10 0 22 0;
#X connect 10 0 25 0;
#X connect 12 0 3 0;
#X connect 13 0 3 0;
#X connect 14 0 3 0;
#X connect 15 0 18 0;
#X connect 16 0 18 0;
#X connect 17 0 49 0;
#X connect 17 1 50 0;
#X connect 18 0 24 0;
#X connect 19 0 12 0;
#X connect 19 0 23 0;
#X connect 19 0 22 0;
#X connect 20 0 13 0;
#X connect 20 0 22 0;
#X connect 20 0 23 0;
#X connect 21 0 14 0;
#X connect 21 0 22 0;
#X connect 21 0 23 0;
#X connect 23 0 47 0;
#X connect 24 0 0 0;
#X connect 24 0 48 0;
#X connect 25 0 47 0;
#X connect 26 0 53 0;
#X connect 27 0 28 0;
#X connect 27 1 29 0;
#X connect 27 2 30 0;
#X connect 27 3 31 0;
#X connect 28 0 32 0;
#X connect 29 0 33 0;
#X connect 30 0 34 0;
#X connect 31 0 35 0;
#X connect 32 0 36 0;
#X connect 33 0 38 0;
#X connect 34 0 39 0;
#X connect 35 0 40 0;
#X connect 36 0 37 0;
#X connect 37 0 41 0;
#X connect 38 0 36 0;
#X connect 38 1 36 1;
#X connect 39 0 37 0;
#X connect 39 1 37 1;
#X connect 40 0 41 0;
#X connect 40 1 41 1;
#X connect 41 0 54 0;
#X connect 42 0 26 1;
#X connect 44 0 52 0;
#X connect 46 0 51 0;
#X connect 48 0 49 1;
#X connect 48 0 50 1;
#X connect 49 0 15 0;
#X connect 50 0 16 0;
#X connect 51 0 0 0;
#X connect 52 0 27 0;
#X connect 52 1 26 0;
#X connect 53 0 17 0;
#X connect 54 0 42 0;
#X connect 55 0 56 0;
#X connect 56 0 42 0;
#X coords 0 -1 1 1 85 60 1 100 100;
#X restore 390 104 pd beat_devision;
#N canvas 649 82 483 777 LCD 0;
#N canvas 1 142 214 196 list-drip 0;
#X obj 42 23 inlet;
#X obj 38 139 list store;
#X obj 42 69 until;
#X obj 42 92 f;
#X obj 72 92 + 1;
#X msg 38 116 get \$1 1;
#X obj 88 67 0;
#X obj 38 162 outlet;
#X obj 101 168 outlet;
#X obj 42 46 t b b a;
#X connect 0 0 9 0;
#X connect 1 0 7 0;
#X connect 1 1 8 0;
#X connect 1 1 2 1;
#X connect 2 0 3 0;
#X connect 3 0 5 0;
#X connect 3 0 4 0;
#X connect 4 0 3 1;
#X connect 5 0 1 0;
#X connect 6 0 3 1;
#X connect 9 0 2 0;
#X connect 9 1 6 0;
#X connect 9 2 1 1;
#X restore 43 84 pd list-drip;
#X obj 43 107 route float symbol;
#X obj 43 130 makefilename %d;
#X obj 43 153 list fromsymbol;
#X obj 43 176 list 32;
#X obj 43 222 list trim;
#X obj 43 245 list store;
#X obj 43 268 t l l;
#X obj 43 337 list split;
#X obj 110 291 list length;
#X obj 110 314 - 1;
#X obj 43 61 t a b;
#X obj 26 507 f;
#X obj 58 506 - 1;
#X obj 25 478 until;
#X msg 21 559 get \$1 1;
#X obj 18 586 list store;
#X obj 43 199 list prepend append;
#X obj 11 396 list length;
#X obj 239 375 * -1;
#X obj 42 646 list store;
#X msg 26 614 append \$1;
#X msg 247 575 append 41;
#X obj 289 506 f;
#X obj 321 505 - 1;
#X obj 286 480 until;
#X obj 355 508 sel 0;
#X obj 332 480 2;
#X obj 41 367 t b l l;
#X obj 298 442 t b b f;
#X obj 45 31 r lcd;
#X msg 40 712 240 \, 66 \, 64 \, 110 \, 8 \, 34 \, 4 \, 0 \, \$3 \, \$2 \, \$1 \, 247;
#X obj 71 746 midiout;
#X obj 270 408 sel 0;
#X obj 320 408 - 1;
#X obj 241 345 - 3;
#X obj 43 428 - 1;
#X obj 77 425 sel 0;
#X obj 44 455 t b b f;
#X obj 78 480 2;
#X obj 97 505 sel 0;
#X text 109 369 reverse;
#X text 250 321 Fill with spaces;
#X obj 113 392 min 3;
#X obj 195 524 t b b;
#X obj 286 376 int;
#X obj 95 538 sel 0;
#X obj 28 533 t f f;
#X obj 169 388 t f f;
#X obj 308 535 t f f;
#X obj 263 535 sel 0;
#X text 340 100 lcd state;
#X obj 253 63 r getlcdstate;
#X obj 241 126 s lcdstate;
#X obj 246 97 list store;
#X connect 0 0 1 0;
#X connect 0 1 6 0;
#X connect 1 0 2 0;
#X connect 1 1 3 0;
#X connect 2 0 3 0;
#X connect 3 0 4 0;
#X connect 4 0 17 0;
#X connect 5 0 6 0;
#X connect 6 0 7 0;
#X connect 7 0 8 0;
#X connect 7 1 9 0;
#X connect 8 0 28 0;
#X connect 9 0 10 0;
#X connect 10 0 8 1;
#X connect 11 0 0 0;
#X connect 11 1 6 1;
#X connect 12 0 13 0;
#X connect 12 0 40 0;
#X connect 12 0 47 0;
#X connect 13 0 12 1;
#X connect 14 0 12 0;
#X connect 15 0 16 0;
#X connect 16 0 21 0;
#X connect 17 0 5 0;
#X connect 18 0 43 0;
#X connect 19 0 45 1;
#X connect 20 0 31 0;
#X connect 21 0 20 0;
#X connect 22 0 20 0;
#X connect 23 0 24 0;
#X connect 23 0 26 0;
#X connect 23 0 49 0;
#X connect 24 0 23 1;
#X connect 25 0 23 0;
#X connect 26 0 25 1;
#X connect 27 0 23 1;
#X connect 28 1 18 0;
#X connect 28 2 16 1;
#X connect 29 0 25 0;
#X connect 29 1 27 0;
#X connect 29 2 27 1;
#X connect 30 0 11 0;
#X connect 30 0 54 1;
#X connect 31 0 32 0;
#X connect 33 0 44 0;
#X connect 33 1 34 0;
#X connect 34 0 29 0;
#X connect 35 0 19 0;
#X connect 36 0 38 0;
#X connect 37 0 45 0;
#X connect 37 1 36 0;
#X connect 38 0 14 0;
#X connect 38 1 39 0;
#X connect 38 2 39 1;
#X connect 39 0 12 1;
#X connect 40 0 14 1;
#X connect 43 0 48 0;
#X connect 44 0 20 1;
#X connect 44 1 20 0;
#X connect 45 0 33 0;
#X connect 46 0 45 0;
#X connect 47 0 46 0;
#X connect 47 1 15 0;
#X connect 48 0 37 0;
#X connect 48 1 35 0;
#X connect 49 0 50 0;
#X connect 49 1 22 0;
#X connect 50 0 44 0;
#X connect 52 0 54 0;
#X connect 54 0 53 0;
#X restore 483 14 pd LCD;
#N canvas 285 521 450 300 pulse2beats 0;
#X obj 28 22 r MIDIpulse;
#X obj 116 238 s beatpulse;
#X obj 155 27 r PPB;
#X obj 104 116 int 0;
#X obj 171 115 + 1;
#X obj 159 176 sel 23;
#X obj 211 126 - 1;
#X obj 152 58 t b b f;
#X floatatom 230 166 5 0 0 0 - - - 0;
#X obj 144 85 0;
#X obj 124 146 t f f;
#X obj 127 208 t b b b;
#X msg 207 211 17;
#X obj 253 212 s btn-flash;
#X obj 281 51 route 72 67;
#X obj 283 75 route 1;
#X obj 286 102 / 127;
#X text 292 131 message button;
#X obj 280 28 r sideButs;
#X obj 337 101 sel 0;
#X connect 0 0 3 0;
#X connect 2 0 7 0;
#X connect 3 0 10 0;
#X connect 4 0 3 1;
#X connect 5 0 11 0;
#X connect 6 0 5 1;
#X connect 6 0 8 0;
#X connect 7 1 9 0;
#X connect 7 2 6 0;
#X connect 9 0 3 1;
#X connect 10 0 5 0;
#X connect 10 1 4 0;
#X connect 11 0 1 0;
#X connect 11 1 9 0;
#X connect 11 2 12 0;
#X connect 12 0 13 0;
#X connect 14 0 15 0;
#X connect 15 0 16 0;
#X connect 16 0 19 0;
#X connect 18 0 14 0;
#X connect 19 0 9 0;
#X restore 520 113 pd pulse2beats;
#N canvas 228 301 588 455 loop_length 0;
#X obj 203 41 route 72 67;
#X obj 201 175 select 1 127;
#X obj 435 50 / 127;
#X msg 470 126 18;
#X obj 470 153 s btn-off;
#X obj 364 206 s btn-on;
#X obj 202 231 + 1;
#X obj 235 230 - 1;
#X obj 202 200 f;
#X obj 235 198 f;
#X floatatom 134 124 5 0 0 0 - - - 0;
#X obj 145 218 f 4;
#X obj 138 255 min 24;
#X obj 465 237 r lcdstate;
#X obj 319 150 s getlcdstate;
#X obj 457 264 spigot;
#X obj 389 341 s lcd;
#X obj 37 266 s LoopLength;
#X obj 54 319 s lcd;
#X obj 377 306 list store;
#X obj 336 70 tgl 19 0 empty empty empty 0 -10 0 12 #fcfcfc #000000 #000000 0 1;
#X text 299 40 setting btn held;
#X obj 195 103 spigot;
#X obj 196 268 max 1;
#X msg 365 179 18;
#X text 517 35 setting;
#X text 120 65 encoder;
#X obj 211 7 r sideButs;
#X msg 480 180 1;
#X msg 476 208 0;
#X obj 542 208 tgl 19 0 empty empty empty 0 -10 0 12 #fcfcfc #000000 #000000 0 1;
#X obj 134 184 loadbang;
#X obj 373 87 select 0;
#X obj 194 72 route 0;
#X obj 436 23 route 2;
#X obj 314 121 t b b b b;
#X obj 469 88 t b b;
#X obj 386 121 delay 2;
#X obj 415 279 t b l;
#X connect 0 0 34 0;
#X connect 0 1 33 0;
#X connect 1 0 8 0;
#X connect 1 1 9 0;
#X connect 2 0 20 0;
#X connect 3 0 4 0;
#X connect 6 0 23 0;
#X connect 7 0 23 0;
#X connect 8 0 6 0;
#X connect 9 0 7 0;
#X connect 11 0 8 1;
#X connect 11 0 9 1;
#X connect 11 0 10 0;
#X connect 11 0 17 0;
#X connect 11 0 18 0;
#X connect 12 0 11 0;
#X connect 13 0 15 0;
#X connect 15 0 38 0;
#X connect 19 0 16 0;
#X connect 20 0 22 1;
#X connect 20 0 32 0;
#X connect 22 0 1 0;
#X connect 23 0 12 0;
#X connect 24 0 5 0;
#X connect 27 0 0 0;
#X connect 28 0 30 0;
#X connect 29 0 30 0;
#X connect 30 0 15 1;
#X connect 31 0 11 0;
#X connect 32 0 36 0;
#X connect 32 1 35 0;
#X connect 33 0 22 0;
#X connect 34 0 2 0;
#X connect 35 0 37 0;
#X connect 35 1 14 0;
#X connect 35 2 28 0;
#X connect 35 3 24 0;
#X connect 36 0 19 0;
#X connect 36 1 3 0;
#X connect 37 0 29 0;
#X connect 38 0 11 0;
#X connect 38 1 19 1;
#X coords 0 -1 1 1 120 60 1 100 100;
#X restore 254 102 pd loop_length;
#X obj 330 435 hsl 162 19 0 127 0 0 empty empty empty -2 -10 0 12 #fcfcfc #000000 #000000 0 1;
#X obj 283 437 / 127;
#X obj 244 437 *~ 1;
#X text 345 455 Volume;
#X obj 111 340 adc~ 1 2 3 4;
#X obj 97 503 dac~ 1 2 3 4;
#N canvas 241 505 860 407 metronome 0;
#X obj 18 99 vline~;
#X obj 76 163 *~;
#X obj 117 372 outlet~;
#X obj 87 17 r beatpulse;
#X text 251 44 knob 2;
#X text 345 138 button;
#X text 187 125 volume;
#X obj 236 82 r sideButs;
#X obj 236 112 route 73 72;
#X obj 213 145 route 1;
#X obj 282 145 route 14;
#X obj 283 175 / 127;
#X obj 212 174 / 127;
#X obj 352 248 switch~;
#X obj 92 205 *~;
#X obj 324 209 tgl 20 0 empty empty empty 0 -10 0 12 #fcfcfc #000000 #000000 0 1;
#X msg 212 235 30;
#X obj 206 258 s btn-on;
#X obj 275 261 s btn-off;
#X obj 246 213 sel 1 0;
#X msg 279 237 30;
#X obj 121 93 line~;
#X obj 123 124 osc~;
#X msg 18 63 1 5 \, 0 20 20;
#X msg 124 65 800 \, 200 15;
#X obj 354 184 sel 1 0, f 8;
#X text 320 21 If you hold it select channels on pads, f 16;
#X obj 451 147 tgl 20 0 empty empty empty 0 -10 0 12 #fcfcfc #000000 #000000 0 1;
#X obj 552 20 r light-prog;
#X text 452 49 prog selected;
#X text 638 43 prog unselected;
#X obj 571 102 tgl 18 0 empty empty empty 0 -9 0 10 #fcfcfc #000000 #000000 0 1;
#X msg 553 73 1;
#X msg 599 84 0;
#X obj 641 73 loadbang;
#X obj 552 47 sel 2;
#X obj 528 245 tgl 20 0 empty empty empty 0 -10 0 12 #fcfcfc #000000 #000000 0 1;
#X obj 574 244 tgl 20 0 empty empty empty 0 -10 0 12 #fcfcfc #000000 #000000 0 1;
#X obj 613 246 tgl 20 0 empty empty empty 0 -10 0 12 #fcfcfc #000000 #000000 0 1;
#X obj 647 246 tgl 20 0 empty empty empty 0 -10 0 12 #fcfcfc #000000 #000000 0 1;
#X obj 667 104 r pads;
#X obj 433 107 t b b;
#X obj 595 48 t b b;
#X obj 597 140 route 0 1 2 3;
#X obj 496 165 unpack f f;
#X obj 530 189 unpack f f;
#X obj 610 168 unpack f f;
#X obj 655 193 unpack f f;
#X obj 482 191 sel 1;
#X obj 532 216 sel 1;
#X obj 608 195 sel 1;
#X obj 660 218 sel 1;
#X msg 502 320 0;
#X msg 566 320 1;
#X msg 641 327 2;
#X msg 709 327 3;
#X obj 531 383 s btn-on;
#X obj 636 385 s btn-off;
#X msg 503 347 0;
#X msg 567 347 1;
#X msg 642 354 2;
#X msg 710 354 3;
#X obj 501 295 sel 1 0;
#X obj 560 296 sel 1 0;
#X obj 628 297 sel 1 0;
#X obj 700 296 sel 1 0;
#X obj 193 374 outlet~;
#X obj 263 374 outlet~;
#X obj 329 375 outlet~;
#X obj 116 335 *~ 1;
#X obj 744 189 loadbang;
#X msg 744 221 1;
#X obj 187 336 *~ 1;
#X obj 261 341 *~ 1;
#X obj 331 339 *~ 1;
#X obj 355 213 int;
#X obj 528 124 sel 1 0;
#X obj 614 116 spigot;
#X obj 699 270 int;
#X obj 635 271 int;
#X obj 574 270 int;
#X obj 510 271 int;
#X connect 0 0 1 0;
#X connect 1 0 14 0;
#X connect 3 0 23 0;
#X connect 3 0 24 0;
#X connect 7 0 8 0;
#X connect 8 0 9 0;
#X connect 8 1 10 0;
#X connect 9 0 12 0;
#X connect 10 0 11 0;
#X connect 11 0 25 0;
#X connect 11 0 27 0;
#X connect 12 0 14 1;
#X connect 14 0 69 0;
#X connect 14 0 72 0;
#X connect 14 0 73 0;
#X connect 14 0 74 0;
#X connect 15 0 75 0;
#X connect 16 0 17 0;
#X connect 19 0 16 0;
#X connect 19 1 20 0;
#X connect 20 0 18 0;
#X connect 21 0 22 0;
#X connect 22 0 1 1;
#X connect 23 0 0 0;
#X connect 24 0 21 0;
#X connect 25 0 15 0;
#X connect 28 0 35 0;
#X connect 31 0 76 0;
#X connect 31 0 77 1;
#X connect 32 0 31 0;
#X connect 33 0 31 0;
#X connect 34 0 33 0;
#X connect 35 0 32 0;
#X connect 35 0 41 0;
#X connect 35 1 42 0;
#X connect 36 0 69 1;
#X connect 36 0 81 0;
#X connect 37 0 72 1;
#X connect 37 0 80 0;
#X connect 38 0 79 0;
#X connect 38 0 73 1;
#X connect 39 0 78 0;
#X connect 39 0 74 1;
#X connect 40 0 77 0;
#X connect 41 0 16 0;
#X connect 41 1 15 0;
#X connect 42 0 75 0;
#X connect 42 1 33 0;
#X connect 43 0 44 0;
#X connect 43 1 45 0;
#X connect 43 2 46 0;
#X connect 43 3 47 0;
#X connect 44 0 48 0;
#X connect 45 0 49 0;
#X connect 46 0 50 0;
#X connect 47 0 51 0;
#X connect 48 0 36 0;
#X connect 49 0 37 0;
#X connect 50 0 38 0;
#X connect 51 0 39 0;
#X connect 52 0 56 0;
#X connect 53 0 56 0;
#X connect 54 0 56 0;
#X connect 55 0 56 0;
#X connect 58 0 57 0;
#X connect 59 0 57 0;
#X connect 60 0 57 0;
#X connect 61 0 57 0;
#X connect 62 0 52 0;
#X connect 62 1 58 0;
#X connect 63 0 53 0;
#X connect 63 1 59 0;
#X connect 64 0 54 0;
#X connect 64 1 60 0;
#X connect 65 0 55 0;
#X connect 65 1 61 0;
#X connect 69 0 2 0;
#X connect 70 0 71 0;
#X connect 71 0 39 0;
#X connect 71 0 38 0;
#X connect 71 0 37 0;
#X connect 71 0 36 0;
#X connect 72 0 66 0;
#X connect 73 0 67 0;
#X connect 74 0 68 0;
#X connect 75 0 13 0;
#X connect 75 0 19 0;
#X connect 76 0 81 0;
#X connect 76 0 80 0;
#X connect 76 0 79 0;
#X connect 76 0 78 0;
#X connect 77 0 43 0;
#X connect 78 0 65 0;
#X connect 79 0 64 0;
#X connect 80 0 63 0;
#X connect 81 0 62 0;
#X restore 10 364 pd metronome;
#N canvas 192 192 450 300 lights 0;
#X msg 102 65 240 \, 66 \, 64 \, 110 \, 8 \, 1 \, \$1 \, 32 \, 247;
#X obj 102 93 midiout;
#X obj 102 40 r btn-on;
#X obj 102 184 midiout;
#X msg 102 156 240 \, 66 \, 64 \, 110 \, 8 \, 1 \, \$1 \, 0 \, 247;
#X obj 103 129 r btn-off;
#X obj 100 213 r btn-flash;
#X obj 100 264 midiout;
#X msg 100 238 240 \, 66 \, 64 \, 110 \, 8 \, 1 \, \$1 \, 68 \, 247;
#X connect 0 0 1 0;
#X connect 2 0 0 0;
#X connect 4 0 3 0;
#X connect 5 0 4 0;
#X connect 6 0 8 0;
#X connect 8 0 7 0;
#X restore 402 13 pd lights;
#N canvas 1036 445 665 344 padprogram 0;
#X obj 67 114 f;
#X floatatom 123 119 5 0 0 0 - - - 0;
#X msg 33 71 1;
#X obj 21 13 loadbang;
#X obj 221 53 r sideButs;
#X obj 221 104 route 14;
#X obj 221 129 / 127;
#X text 215 29 Knob 2 button;
#X obj 221 78 route 72;
#X obj 195 157 tgl 20 0 empty empty empty 0 -10 0 12 #fcfcfc #000000 #000000 0 1;
#X obj 252 158 sel 1 0;
#X msg 186 210 2;
#X obj 79 174 s light-prog;
#X obj 253 182 delay 300;
#X obj 220 181 f;
#X obj 220 209 sel 1;
#X text 265 207 held;
#X obj 19 293 midiout;
#X msg 19 253 240 \, 66 \, 64 \, 110 \, 8 \, 63 \, 10 \, 1 \, 0 \, 0 \, 0 \, 0 \, 0 \, 3 \, 83 \, 69 \, 89 \, 247;
#X text 19 227 blank all lights;
#X obj 60 139 t f b;
#X obj 356 58 r sideButs;
#X obj 356 134 / 127;
#X obj 356 83 route 72;
#X obj 330 162 tgl 20 0 empty empty empty 0 -10 0 12 #fcfcfc #000000 #000000 0 1;
#X obj 387 163 sel 1 0;
#X obj 388 187 delay 300;
#X obj 355 186 f;
#X obj 355 214 sel 1;
#X text 400 212 held;
#X text 350 34 Knob 1 button;
#X obj 356 109 route 13;
#X msg 321 215 3;
#X text 513 30 Scene;
#X obj 500 58 r sideButs;
#X obj 500 134 / 127;
#X obj 500 83 route 72;
#X obj 474 162 tgl 20 0 empty empty empty 0 -10 0 12 #fcfcfc #000000 #000000 0 1;
#X obj 531 163 sel 1 0;
#X obj 500 109 route 0;
#X msg 465 215 4;
#X connect 0 0 20 0;
#X connect 2 0 0 0;
#X connect 3 0 2 0;
#X connect 4 0 8 0;
#X connect 5 0 6 0;
#X connect 6 0 9 0;
#X connect 6 0 10 0;
#X connect 6 0 14 1;
#X connect 8 0 5 0;
#X connect 10 0 13 0;
#X connect 10 1 2 0;
#X connect 11 0 0 0;
#X connect 13 0 14 0;
#X connect 14 0 15 0;
#X connect 15 0 11 0;
#X connect 18 0 17 0;
#X connect 20 0 12 0;
#X connect 20 0 1 0;
#X connect 20 1 18 0;
#X connect 21 0 23 0;
#X connect 22 0 24 0;
#X connect 22 0 25 0;
#X connect 22 0 27 1;
#X connect 23 0 31 0;
#X connect 25 0 26 0;
#X connect 25 1 2 0;
#X connect 26 0 27 0;
#X connect 27 0 28 0;
#X connect 28 0 32 0;
#X connect 31 0 22 0;
#X connect 32 0 0 0;
#X connect 34 0 36 0;
#X connect 35 0 37 0;
#X connect 35 0 38 0;
#X connect 36 0 39 0;
#X connect 38 0 40 0;
#X connect 38 1 2 0;
#X connect 39 0 35 0;
#X connect 40 0 0 0;
#X coords 0 -1 1 1 85 40 1 100 100;
#X restore 539 16 pd padprogram;
#X obj 400 409 r pads;
#X obj 115 369 *~ 127;
#N canvas 691 226 450 300 knob1-3 0;
#X obj 60 75 r sideButs;
#X obj 57 204 outlet;
#X obj 250 30 r light-prog;
#X text 133 59 prog selected;
#X text 336 53 prog unselected;
#X obj 269 112 tgl 18 0 empty empty empty 0 -9 0 10 #fcfcfc #000000 #000000 0 1;
#X msg 251 83 1;
#X msg 297 94 0;
#X obj 339 83 loadbang;
#X obj 293 58 t b b;
#X obj 78 110 spigot;
#X obj 57 141 route 73;
#X obj 57 174 route 0;
#X obj 233 57 sel 3;
#X obj 242 205 s btn-on;
#X obj 311 208 s btn-off;
#X obj 282 160 sel 1 0;
#X msg 248 182 29;
#X msg 315 184 29;
#X connect 0 0 10 0;
#X connect 2 0 13 0;
#X connect 5 0 10 1;
#X connect 5 0 16 0;
#X connect 6 0 5 0;
#X connect 7 0 5 0;
#X connect 8 0 7 0;
#X connect 9 1 7 0;
#X connect 10 0 11 0;
#X connect 11 0 12 0;
#X connect 12 0 1 0;
#X connect 13 0 6 0;
#X connect 13 1 9 0;
#X connect 16 0 17 0;
#X connect 16 1 18 0;
#X connect 17 0 14 0;
#X connect 18 0 15 0;
#X restore 507 369 pd knob1-3;
#N canvas 224 224 450 300 knob1-1 0;
#X obj 60 75 r sideButs;
#X obj 57 204 outlet;
#X obj 250 30 r light-prog;
#X text 133 59 prog selected;
#X text 336 53 prog unselected;
#X obj 269 112 tgl 18 0 empty empty empty 0 -9 0 10 #fcfcfc #000000 #000000 0 1;
#X msg 251 90 1;
#X msg 297 94 0;
#X obj 339 83 loadbang;
#X obj 293 58 t b b;
#X obj 78 110 spigot;
#X obj 57 141 route 73;
#X obj 57 174 route 0;
#X obj 233 57 sel 1 2;
#X connect 0 0 10 0;
#X connect 2 0 13 0;
#X connect 5 0 10 1;
#X connect 6 0 5 0;
#X connect 7 0 5 0;
#X connect 8 0 7 0;
#X connect 9 1 7 0;
#X connect 10 0 11 0;
#X connect 11 0 12 0;
#X connect 12 0 1 0;
#X connect 13 0 6 0;
#X connect 13 1 6 0;
#X connect 13 2 9 0;
#X restore 505 436 pd knob1-1;
#X obj 339 372 hsl 162 19 0 127 0 0 empty empty empty -2 -10 0 12 #fcfcfc #000000 #000000 0 1;
#X obj 167 369 *~ 127;
#X obj 216 370 *~ 127;
#X obj 268 371 *~ 127;
#N canvas 682 244 818 411 looper-in 0;
#X obj 552 20 r light-prog;
#X text 452 49 prog selected;
#X text 638 43 prog unselected;
#X obj 571 102 tgl 18 0 empty empty empty 0 -9 0 10 #fcfcfc #000000 #000000 0 1;
#X msg 553 73 1;
#X msg 599 84 0;
#X obj 641 73 loadbang;
#X obj 528 245 tgl 20 0 empty empty empty 0 -10 0 12 #fcfcfc #000000 #000000 0 1;
#X obj 574 244 tgl 20 0 empty empty empty 0 -10 0 12 #fcfcfc #000000 #000000 0 1;
#X obj 613 246 tgl 20 0 empty empty empty 0 -10 0 12 #fcfcfc #000000 #000000 0 1;
#X obj 647 246 tgl 20 0 empty empty empty 0 -10 0 12 #fcfcfc #000000 #000000 0 1;
#X obj 667 104 r pads;
#X obj 595 48 t b b;
#X obj 597 140 route 0 1 2 3;
#X obj 496 165 unpack f f;
#X obj 530 189 unpack f f;
#X obj 610 168 unpack f f;
#X obj 655 193 unpack f f;
#X obj 482 191 sel 1;
#X obj 532 216 sel 1;
#X obj 608 195 sel 1;
#X obj 660 218 sel 1;
#X msg 502 320 0;
#X msg 566 320 1;
#X msg 641 327 2;
#X msg 709 327 3;
#X obj 531 383 s btn-on;
#X obj 636 385 s btn-off;
#X msg 503 347 0;
#X msg 567 347 1;
#X msg 642 354 2;
#X msg 710 354 3;
#X obj 501 295 sel 1 0;
#X obj 560 296 sel 1 0;
#X obj 628 297 sel 1 0;
#X obj 700 296 sel 1 0;
#X obj 744 189 loadbang;
#X msg 744 221 1;
#X obj 528 124 sel 1 0;
#X obj 614 116 spigot;
#X obj 699 270 int;
#X obj 635 271 int;
#X obj 574 270 int;
#X obj 510 271 int;
#X obj 179 350 outlet~;
#X obj 116 271 *~ 1;
#X obj 187 272 *~ 1;
#X obj 261 277 *~ 1;
#X obj 331 275 *~ 1;
#X obj 106 77 inlet~;
#X obj 161 79 inlet~;
#X obj 215 80 inlet~;
#X obj 277 81 inlet~;
#X obj 552 47 sel 3;
#X connect 0 0 53 0;
#X connect 3 0 38 0;
#X connect 3 0 39 1;
#X connect 4 0 3 0;
#X connect 5 0 3 0;
#X connect 6 0 5 0;
#X connect 7 0 43 0;
#X connect 7 0 45 1;
#X connect 8 0 42 0;
#X connect 8 0 46 1;
#X connect 9 0 41 0;
#X connect 9 0 47 1;
#X connect 10 0 40 0;
#X connect 10 0 48 1;
#X connect 11 0 39 0;
#X connect 12 1 5 0;
#X connect 13 0 14 0;
#X connect 13 1 15 0;
#X connect 13 2 16 0;
#X connect 13 3 17 0;
#X connect 14 0 18 0;
#X connect 15 0 19 0;
#X connect 16 0 20 0;
#X connect 17 0 21 0;
#X connect 18 0 7 0;
#X connect 19 0 8 0;
#X connect 20 0 9 0;
#X connect 21 0 10 0;
#X connect 22 0 26 0;
#X connect 23 0 26 0;
#X connect 24 0 26 0;
#X connect 25 0 26 0;
#X connect 28 0 27 0;
#X connect 29 0 27 0;
#X connect 30 0 27 0;
#X connect 31 0 27 0;
#X connect 32 0 22 0;
#X connect 32 1 28 0;
#X connect 33 0 23 0;
#X connect 33 1 29 0;
#X connect 34 0 24 0;
#X connect 34 1 30 0;
#X connect 35 0 25 0;
#X connect 35 1 31 0;
#X connect 36 0 37 0;
#X connect 37 0 10 0;
#X connect 37 0 9 0;
#X connect 37 0 8 0;
#X connect 37 0 7 0;
#X connect 38 0 43 0;
#X connect 38 0 42 0;
#X connect 38 0 41 0;
#X connect 38 0 40 0;
#X connect 39 0 13 0;
#X connect 40 0 35 0;
#X connect 41 0 34 0;
#X connect 42 0 33 0;
#X connect 43 0 32 0;
#X connect 45 0 44 0;
#X connect 46 0 44 0;
#X connect 47 0 44 0;
#X connect 48 0 44 0;
#X connect 49 0 45 0;
#X connect 50 0 46 0;
#X connect 51 0 47 0;
#X connect 52 0 48 0;
#X connect 53 0 4 0;
#X connect 53 1 12 0;
#X restore 136 408 pd looper-in;
#X text 349 347 Rec Vol;
#N canvas 242 216 878 447 looper-out 0;
#X obj 552 20 r light-prog;
#X text 452 49 prog selected;
#X text 638 43 prog unselected;
#X obj 571 102 tgl 18 0 empty empty empty 0 -9 0 10 #fcfcfc #000000 #000000 0 1;
#X msg 553 73 1;
#X msg 599 84 0;
#X obj 641 73 loadbang;
#X obj 528 245 tgl 20 0 empty empty empty 0 -10 0 12 #fcfcfc #000000 #000000 0 1;
#X obj 574 244 tgl 20 0 empty empty empty 0 -10 0 12 #fcfcfc #000000 #000000 0 1;
#X obj 613 246 tgl 20 0 empty empty empty 0 -10 0 12 #fcfcfc #000000 #000000 0 1;
#X obj 647 246 tgl 20 0 empty empty empty 0 -10 0 12 #fcfcfc #000000 #000000 0 1;
#X obj 667 104 r pads;
#X obj 595 48 t b b;
#X obj 496 165 unpack f f;
#X obj 530 189 unpack f f;
#X obj 610 168 unpack f f;
#X obj 655 193 unpack f f;
#X obj 482 191 sel 1;
#X obj 532 216 sel 1;
#X obj 608 195 sel 1;
#X obj 660 218 sel 1;
#X obj 531 383 s btn-on;
#X obj 636 385 s btn-off;
#X obj 501 295 sel 1 0;
#X obj 560 296 sel 1 0;
#X obj 628 297 sel 1 0;
#X obj 700 296 sel 1 0;
#X obj 744 189 loadbang;
#X msg 744 221 1;
#X obj 528 124 sel 1 0;
#X obj 614 116 spigot;
#X obj 699 270 int;
#X obj 635 271 int;
#X obj 574 270 int;
#X obj 510 271 int;
#X obj 552 47 sel 3;
#X obj 597 140 route 12 13 14 15;
#X msg 502 320 12;
#X msg 503 347 12;
#X msg 566 320 13;
#X msg 567 347 13;
#X msg 641 327 14;
#X msg 642 354 14;
#X msg 709 327 15;
#X msg 711 354 15;
#X obj 206 138 inlet~;
#X obj 96 346 outlet~;
#X obj 113 312 *~ 1;
#X obj 158 348 outlet~;
#X obj 175 314 *~ 1;
#X obj 219 347 outlet~;
#X obj 236 313 *~ 1;
#X obj 277 348 outlet~;
#X obj 294 314 *~ 1;
#X connect 0 0 35 0;
#X connect 3 0 29 0;
#X connect 3 0 30 1;
#X connect 4 0 3 0;
#X connect 5 0 3 0;
#X connect 6 0 5 0;
#X connect 7 0 34 0;
#X connect 7 0 47 1;
#X connect 8 0 33 0;
#X connect 8 0 49 1;
#X connect 9 0 32 0;
#X connect 9 0 51 1;
#X connect 10 0 31 0;
#X connect 10 0 53 1;
#X connect 11 0 30 0;
#X connect 12 1 5 0;
#X connect 13 0 17 0;
#X connect 14 0 18 0;
#X connect 15 0 19 0;
#X connect 16 0 20 0;
#X connect 17 0 7 0;
#X connect 18 0 8 0;
#X connect 19 0 9 0;
#X connect 20 0 10 0;
#X connect 23 0 37 0;
#X connect 23 1 38 0;
#X connect 24 0 39 0;
#X connect 24 1 40 0;
#X connect 25 0 41 0;
#X connect 25 1 42 0;
#X connect 26 0 43 0;
#X connect 26 1 44 0;
#X connect 27 0 28 0;
#X connect 28 0 10 0;
#X connect 28 0 9 0;
#X connect 28 0 8 0;
#X connect 28 0 7 0;
#X connect 29 0 34 0;
#X connect 29 0 33 0;
#X connect 29 0 32 0;
#X connect 29 0 31 0;
#X connect 30 0 36 0;
#X connect 31 0 26 0;
#X connect 32 0 25 0;
#X connect 33 0 24 0;
#X connect 34 0 23 0;
#X connect 35 0 4 0;
#X connect 35 1 12 0;
#X connect 36 0 13 0;
#X connect 36 1 14 0;
#X connect 36 2 15 0;
#X connect 36 3 16 0;
#X connect 37 0 21 0;
#X connect 38 0 22 0;
#X connect 39 0 21 0;
#X connect 40 0 22 0;
#X connect 41 0 21 0;
#X connect 42 0 22 0;
#X connect 43 0 21 0;
#X connect 44 0 22 0;
#X connect 45 0 47 0;
#X connect 45 0 49 0;
#X connect 45 0 51 0;
#X connect 45 0 53 0;
#X connect 47 0 46 0;
#X connect 49 0 48 0;
#X connect 51 0 50 0;
#X connect 53 0 52 0;
#X restore 229 464 pd looper-out;
#N canvas 230 276 1065 636 patchbay 0;
#X obj 552 20 r light-prog;
#X text 452 49 prog selected;
#X text 638 43 prog unselected;
#X obj 571 102 tgl 18 0 empty empty empty 0 -9 0 10 #fcfcfc #000000 #000000 0 1;
#X msg 553 73 1;
#X msg 599 84 0;
#X obj 641 73 loadbang;
#X obj 528 245 tgl 20 0 empty empty empty 0 -10 0 12 #fcfcfc #000000 #000000 0 1;
#X obj 574 244 tgl 20 0 empty empty empty 0 -10 0 12 #fcfcfc #000000 #000000 0 1;
#X obj 613 246 tgl 20 0 empty empty empty 0 -10 0 12 #fcfcfc #000000 #000000 0 1;
#X obj 647 246 tgl 20 0 empty empty empty 0 -10 0 12 #fcfcfc #000000 #000000 0 1;
#X obj 667 104 r pads;
#X obj 595 48 t b b;
#X obj 496 165 unpack f f;
#X obj 530 189 unpack f f;
#X obj 610 168 unpack f f;
#X obj 655 193 unpack f f;
#X obj 482 191 sel 1;
#X obj 532 216 sel 1;
#X obj 608 195 sel 1;
#X obj 660 218 sel 1;
#X msg 744 219 0;
#X msg 815 220 1;
#X msg 890 223 2;
#X msg 959 223 3;
#X obj 781 254 s btn-on;
#X obj 893 255 s btn-off;
#X msg 779 222 0;
#X msg 851 221 1;
#X msg 924 221 2;
#X msg 1000 229 3;
#X obj 743 194 sel 1 0;
#X obj 802 195 sel 1 0;
#X obj 870 196 sel 1 0;
#X obj 942 195 sel 1 0;
#X obj 408 197 loadbang;
#X obj 528 124 sel 1 0;
#X obj 614 116 spigot;
#X obj 941 169 int;
#X obj 877 170 int;
#X obj 816 169 int;
#X obj 752 170 int;
#X obj 41 163 *~ 1;
#X obj 96 162 *~ 1;
#X obj 152 164 *~ 1;
#X obj 214 165 *~ 1;
#X obj 42 83 inlet~;
#X obj 97 85 inlet~;
#X obj 154 84 inlet~;
#X obj 214 84 inlet~;
#X obj 597 140 route 0 1 2 3 4 5 6 7 8 9 10 11 12 13 14 15;
#X obj 514 355 tgl 20 0 empty empty empty 0 -10 0 12 #fcfcfc #000000 #000000 0 1;
#X obj 560 354 tgl 20 0 empty empty empty 0 -10 0 12 #fcfcfc #000000 #000000 0 1;
#X obj 599 356 tgl 20 0 empty empty empty 0 -10 0 12 #fcfcfc #000000 #000000 0 1;
#X obj 633 356 tgl 20 0 empty empty empty 0 -10 0 12 #fcfcfc #000000 #000000 0 1;
#X obj 482 275 unpack f f;
#X obj 516 299 unpack f f;
#X obj 596 278 unpack f f;
#X obj 641 303 unpack f f;
#X obj 468 301 sel 1;
#X obj 518 326 sel 1;
#X obj 594 305 sel 1;
#X obj 646 328 sel 1;
#X obj 767 364 s btn-on;
#X obj 877 364 s btn-off;
#X obj 729 304 sel 1 0;
#X obj 788 305 sel 1 0;
#X obj 856 306 sel 1 0;
#X obj 928 305 sel 1 0;
#X obj 927 279 int;
#X obj 863 280 int;
#X obj 802 279 int;
#X obj 738 280 int;
#X obj 506 468 tgl 20 0 empty empty empty 0 -10 0 12 #fcfcfc #000000 #000000 0 1;
#X obj 552 467 tgl 20 0 empty empty empty 0 -10 0 12 #fcfcfc #000000 #000000 0 1;
#X obj 591 469 tgl 20 0 empty empty empty 0 -10 0 12 #fcfcfc #000000 #000000 0 1;
#X obj 625 469 tgl 20 0 empty empty empty 0 -10 0 12 #fcfcfc #000000 #000000 0 1;
#X obj 474 388 unpack f f;
#X obj 508 412 unpack f f;
#X obj 588 391 unpack f f;
#X obj 633 416 unpack f f;
#X obj 460 414 sel 1;
#X obj 510 439 sel 1;
#X obj 586 418 sel 1;
#X obj 638 441 sel 1;
#X obj 759 477 s btn-on;
#X obj 869 477 s btn-off;
#X obj 721 417 sel 1 0;
#X obj 780 418 sel 1 0;
#X obj 848 419 sel 1 0;
#X obj 920 418 sel 1 0;
#X obj 919 392 int;
#X obj 855 393 int;
#X obj 794 392 int;
#X obj 730 393 int;
#X obj 516 584 tgl 20 0 empty empty empty 0 -10 0 12 #fcfcfc #000000 #000000 0 1;
#X obj 562 583 tgl 20 0 empty empty empty 0 -10 0 12 #fcfcfc #000000 #000000 0 1;
#X obj 601 585 tgl 20 0 empty empty empty 0 -10 0 12 #fcfcfc #000000 #000000 0 1;
#X obj 635 585 tgl 20 0 empty empty empty 0 -10 0 12 #fcfcfc #000000 #000000 0 1;
#X obj 484 504 unpack f f;
#X obj 518 528 unpack f f;
#X obj 598 507 unpack f f;
#X obj 643 532 unpack f f;
#X obj 470 530 sel 1;
#X obj 520 555 sel 1;
#X obj 596 534 sel 1;
#X obj 648 557 sel 1;
#X obj 769 593 s btn-on;
#X obj 879 593 s btn-off;
#X obj 731 533 sel 1 0;
#X obj 790 534 sel 1 0;
#X obj 858 535 sel 1 0;
#X obj 930 534 sel 1 0;
#X obj 929 508 int;
#X obj 865 509 int;
#X obj 804 508 int;
#X obj 740 509 int;
#X msg 729 329 4;
#X msg 765 332 4;
#X msg 801 330 5;
#X msg 837 331 5;
#X msg 876 333 6;
#X msg 910 331 6;
#X msg 945 332 7;
#X msg 985 334 7;
#X msg 722 442 8;
#X msg 757 445 8;
#X msg 793 443 9;
#X msg 829 444 9;
#X msg 868 446 10;
#X msg 902 444 10;
#X msg 937 445 11;
#X msg 972 445 11;
#X msg 732 558 12;
#X msg 767 561 12;
#X msg 803 559 13;
#X msg 839 560 13;
#X msg 878 562 14;
#X msg 912 560 14;
#X msg 947 561 15;
#X msg 986 562 15;
#X obj 397 300 loadbang;
#X msg 413 224 0;
#X obj 390 423 loadbang;
#X obj 391 544 loadbang;
#X msg 402 327 0;
#X msg 395 450 0;
#X obj 258 184 outlet~;
#X obj 32 359 *~ 1;
#X obj 87 358 *~ 1;
#X obj 143 360 *~ 1;
#X obj 205 361 *~ 1;
#X obj 280 380 outlet~;
#X obj 26 451 *~ 1;
#X obj 81 450 *~ 1;
#X obj 137 452 *~ 1;
#X obj 199 453 *~ 1;
#X obj 298 474 outlet~;
#X obj 26 558 *~ 1;
#X obj 81 557 *~ 1;
#X obj 137 559 *~ 1;
#X obj 199 560 *~ 1;
#X obj 322 578 outlet~;
#X obj 754 108 s btn-on;
#X obj 823 111 s btn-off;
#X obj 794 63 sel 1 0;
#X msg 761 84 16;
#X msg 827 87 16;
#X obj 552 47 sel 4;
#X msg 397 571 0;
#X connect 0 0 168 0;
#X connect 3 0 36 0;
#X connect 3 0 37 1;
#X connect 3 0 165 0;
#X connect 4 0 3 0;
#X connect 5 0 3 0;
#X connect 6 0 5 0;
#X connect 7 0 41 0;
#X connect 7 0 42 1;
#X connect 8 0 40 0;
#X connect 8 0 43 1;
#X connect 9 0 39 0;
#X connect 9 0 44 1;
#X connect 10 0 38 0;
#X connect 10 0 45 1;
#X connect 11 0 37 0;
#X connect 12 1 5 0;
#X connect 13 0 17 0;
#X connect 14 0 18 0;
#X connect 15 0 19 0;
#X connect 16 0 20 0;
#X connect 17 0 7 0;
#X connect 18 0 8 0;
#X connect 19 0 9 0;
#X connect 20 0 10 0;
#X connect 21 0 25 0;
#X connect 22 0 25 0;
#X connect 23 0 25 0;
#X connect 24 0 25 0;
#X connect 27 0 26 0;
#X connect 28 0 26 0;
#X connect 29 0 26 0;
#X connect 30 0 26 0;
#X connect 31 0 21 0;
#X connect 31 1 27 0;
#X connect 32 0 22 0;
#X connect 32 1 28 0;
#X connect 33 0 23 0;
#X connect 33 1 29 0;
#X connect 34 0 24 0;
#X connect 34 1 30 0;
#X connect 35 0 142 0;
#X connect 36 0 41 0;
#X connect 36 0 40 0;
#X connect 36 0 39 0;
#X connect 36 0 38 0;
#X connect 37 0 50 0;
#X connect 38 0 34 0;
#X connect 39 0 33 0;
#X connect 40 0 32 0;
#X connect 41 0 31 0;
#X connect 42 0 147 0;
#X connect 43 0 147 0;
#X connect 44 0 147 0;
#X connect 45 0 147 0;
#X connect 46 0 42 0;
#X connect 46 0 148 0;
#X connect 46 0 153 0;
#X connect 46 0 158 0;
#X connect 47 0 43 0;
#X connect 47 0 149 0;
#X connect 47 0 154 0;
#X connect 47 0 159 0;
#X connect 48 0 44 0;
#X connect 48 0 150 0;
#X connect 48 0 155 0;
#X connect 48 0 160 0;
#X connect 49 0 45 0;
#X connect 49 0 151 0;
#X connect 49 0 156 0;
#X connect 49 0 161 0;
#X connect 50 0 13 0;
#X connect 50 1 14 0;
#X connect 50 2 15 0;
#X connect 50 3 16 0;
#X connect 50 4 55 0;
#X connect 50 5 56 0;
#X connect 50 6 57 0;
#X connect 50 7 58 0;
#X connect 50 8 77 0;
#X connect 50 9 78 0;
#X connect 50 10 79 0;
#X connect 50 11 80 0;
#X connect 50 12 99 0;
#X connect 50 13 100 0;
#X connect 50 14 101 0;
#X connect 50 15 102 0;
#X connect 51 0 72 0;
#X connect 51 0 148 1;
#X connect 52 0 71 0;
#X connect 52 0 149 1;
#X connect 53 0 70 0;
#X connect 53 0 150 1;
#X connect 54 0 69 0;
#X connect 54 0 151 1;
#X connect 55 0 59 0;
#X connect 56 0 60 0;
#X connect 57 0 61 0;
#X connect 58 0 62 0;
#X connect 59 0 51 0;
#X connect 60 0 52 0;
#X connect 61 0 53 0;
#X connect 62 0 54 0;
#X connect 65 0 117 0;
#X connect 65 1 118 0;
#X connect 66 0 119 0;
#X connect 66 1 120 0;
#X connect 67 0 121 0;
#X connect 67 1 122 0;
#X connect 68 0 123 0;
#X connect 68 1 124 0;
#X connect 69 0 68 0;
#X connect 70 0 67 0;
#X connect 71 0 66 0;
#X connect 72 0 65 0;
#X connect 73 0 94 0;
#X connect 73 0 153 1;
#X connect 74 0 93 0;
#X connect 74 0 154 1;
#X connect 75 0 92 0;
#X connect 75 0 155 1;
#X connect 76 0 91 0;
#X connect 76 0 156 1;
#X connect 77 0 81 0;
#X connect 78 0 82 0;
#X connect 79 0 83 0;
#X connect 80 0 84 0;
#X connect 81 0 73 0;
#X connect 82 0 74 0;
#X connect 83 0 75 0;
#X connect 84 0 76 0;
#X connect 87 0 125 0;
#X connect 87 1 126 0;
#X connect 88 0 127 0;
#X connect 88 1 128 0;
#X connect 89 0 129 0;
#X connect 89 1 130 0;
#X connect 90 0 131 0;
#X connect 90 1 132 0;
#X connect 91 0 90 0;
#X connect 92 0 89 0;
#X connect 93 0 88 0;
#X connect 94 0 87 0;
#X connect 95 0 116 0;
#X connect 95 0 158 1;
#X connect 96 0 115 0;
#X connect 96 0 159 1;
#X connect 97 0 114 0;
#X connect 97 0 160 1;
#X connect 98 0 113 0;
#X connect 98 0 161 1;
#X connect 99 0 103 0;
#X connect 100 0 104 0;
#X connect 101 0 105 0;
#X connect 102 0 106 0;
#X connect 103 0 95 0;
#X connect 104 0 96 0;
#X connect 105 0 97 0;
#X connect 106 0 98 0;
#X connect 109 0 133 0;
#X connect 109 1 134 0;
#X connect 110 0 135 0;
#X connect 110 1 136 0;
#X connect 111 0 137 0;
#X connect 111 1 138 0;
#X connect 112 0 139 0;
#X connect 112 1 140 0;
#X connect 113 0 112 0;
#X connect 114 0 111 0;
#X connect 115 0 110 0;
#X connect 116 0 109 0;
#X connect 117 0 63 0;
#X connect 118 0 64 0;
#X connect 119 0 63 0;
#X connect 120 0 64 0;
#X connect 121 0 63 0;
#X connect 122 0 64 0;
#X connect 123 0 63 0;
#X connect 124 0 64 0;
#X connect 125 0 85 0;
#X connect 126 0 86 0;
#X connect 127 0 85 0;
#X connect 128 0 86 0;
#X connect 129 0 85 0;
#X connect 130 0 86 0;
#X connect 131 0 85 0;
#X connect 132 0 86 0;
#X connect 133 0 107 0;
#X connect 134 0 108 0;
#X connect 135 0 107 0;
#X connect 136 0 108 0;
#X connect 137 0 107 0;
#X connect 138 0 108 0;
#X connect 139 0 107 0;
#X connect 140 0 108 0;
#X connect 141 0 145 0;
#X connect 142 0 10 0;
#X connect 142 0 9 0;
#X connect 142 0 8 0;
#X connect 142 0 7 0;
#X connect 143 0 146 0;
#X connect 144 0 169 0;
#X connect 145 0 51 0;
#X connect 145 0 52 0;
#X connect 145 0 53 0;
#X connect 145 0 54 0;
#X connect 146 0 73 0;
#X connect 146 0 74 0;
#X connect 146 0 75 0;
#X connect 146 0 76 0;
#X connect 148 0 152 0;
#X connect 149 0 152 0;
#X connect 150 0 152 0;
#X connect 151 0 152 0;
#X connect 153 0 157 0;
#X connect 154 0 157 0;
#X connect 155 0 157 0;
#X connect 156 0 157 0;
#X connect 158 0 162 0;
#X connect 159 0 162 0;
#X connect 160 0 162 0;
#X connect 161 0 162 0;
#X connect 165 0 166 0;
#X connect 165 1 167 0;
#X connect 166 0 163 0;
#X connect 167 0 164 0;
#X connect 168 0 4 0;
#X connect 168 1 12 0;
#X connect 169 0 95 0;
#X connect 169 0 96 0;
#X connect 169 0 97 0;
#X connect 169 0 98 0;
#X restore 87 444 pd patchbay;
#X connect 2 0 1 0;
#X connect 5 0 4 0;
#X connect 6 0 14 0;
#X connect 12 0 13 0;
#X connect 13 0 14 1;
#X connect 14 0 31 0;
#X connect 16 0 22 0;
#X connect 16 0 32 0;
#X connect 16 1 26 0;
#X connect 16 1 32 1;
#X connect 16 2 27 0;
#X connect 16 2 32 2;
#X connect 16 3 28 0;
#X connect 16 3 32 3;
#X connect 18 0 17 0;
#X connect 18 1 17 1;
#X connect 18 2 17 2;
#X connect 18 3 17 3;
#X connect 21 0 6 1;
#X connect 22 0 29 0;
#X connect 23 0 25 0;
#X connect 24 0 12 0;
#X connect 25 0 28 1;
#X connect 25 0 27 1;
#X connect 25 0 26 1;
#X connect 25 0 22 1;
#X connect 26 0 29 1;
#X connect 27 0 29 2;
#X connect 28 0 29 3;
#X connect 29 0 6 0;
#X connect 31 0 17 0;
#X connect 31 1 17 1;
#X connect 31 2 17 2;
#X connect 31 3 17 3;
#X connect 32 0 17 0;
#X connect 32 1 17 1;
#X connect 32 2 17 2;
#X connect 32 3 17 3;
