#N canvas 146 188 835 509 12;
#X text 141 50 Enter native mode;
#N canvas 41 136 933 600 native_mode 0;
#X obj 74 482 midiout;
#X msg 74 184 240 \, 66 \, 64 \, 110 \, 8 \, 0 \, 0 \, 1 \, 247;
#X msg 99 213 240 \, 66 \, 64 \, 110 \, 8 \, 0 \, 0 \, 0 \, 247;
#X msg 159 272 240 \, 66 \, 64 \, 110 \, 8 \, 63 \, 42 \, 0 \, 0 \,
5 \, 9 \, 9 \, 16 \, 17 \, 127 \, 127 \, 3 \, 9 \, 9 \, 9 \, 9 \, 9
\, 9 \, 9 \, 9 \, 9 \, 9 \, 9 \, 9 \, 9 \, 9 \, 9 \, 9 \, 1 \, 2 \,
3 \, 4 \, 5 \, 6 \, 7 \, 8 \, 9 \, 10 \, 11 \, 12 \, 13 \, 14 \, 15
\, 16 \, 247;
#X msg 140 348 240 \, 66 \, 64 \, 110 \, 8 \, 63 \, 10 \, 1 \, 127
\, 127 \, 127 \, 127 \, 127 \, 3 \, 83 \, 69 \, 89 \, 247;
#X obj 106 126 bng 30 250 50 0 empty empty start 0 -6 0 10 -4034 -1
-1;
#X msg 122 411 240 \, 66 \, 64 \, 110 \, 8 \, 63 \, 10 \, 1 \, 0 \,
0 \, 0 \, 0 \, 0 \, 3 \, 83 \, 69 \, 89 \, 247;
#X obj 149 124 bng 30 250 50 0 empty empty stop 0 -6 0 10 -258113 -1
-1;
#X text 331 181 start native mode;
#X text 341 214 stop native mode;
#X text 589 291 set sysex and midi;
#X text 577 354 turn on all lights;
#X text 551 416 turn off all lights;
#X obj 159 248 delay 250;
#X obj 140 323 delay 250;
#X obj 122 388 delay 250;
#X symbolatom 156 4 10 0 0 0 - - -;
#X floatatom 104 0 5 0 0 0 - - -;
#X obj 104 28 spigot;
#X obj 104 56 sel F4 F5;
#X obj 34 90 inlet;
#X obj 201 95 inlet;
#X text 35 63 1;
#X text 206 69 2;
#X connect 1 0 0 0;
#X connect 1 0 13 0;
#X connect 2 0 0 0;
#X connect 3 0 0 0;
#X connect 4 0 0 0;
#X connect 5 0 1 0;
#X connect 6 0 0 0;
#X connect 7 0 2 0;
#X connect 13 0 3 0;
#X connect 13 0 14 0;
#X connect 14 0 4 0;
#X connect 14 0 15 0;
#X connect 15 0 6 0;
#X connect 16 0 18 0;
#X connect 17 0 18 1;
#X connect 18 0 19 0;
#X connect 19 0 5 0;
#X connect 19 1 7 0;
#X connect 20 0 5 0;
#X connect 21 0 7 0;
#X coords 0 -1 1 1 85 60 1 100 100;
#X restore 22 49 pd native_mode;
#X obj 16 12 loadbang;
#N canvas 36 277 671 447 raw_MIDI 0;
#X floatatom 122 19 0 0 0 0 - - -;
#X floatatom 155 20 3 0 0 0 - - -;
#X obj 110 -6 midiin;
#X obj 100 118 + 1;
#X obj 54 118 int 1;
#X msg 16 89 0;
#X obj 23 145 % 13;
#X obj 111 171 pack f f;
#X obj 68 205 route 1 2 3 4 5 6 7 8 9 10 11 12;
#X floatatom 9 244 5 0 0 0 - - -;
#X floatatom 18 268 5 0 0 0 - - -;
#X floatatom 51 245 5 0 0 0 - - -;
#X floatatom 67 269 5 0 0 0 - - -;
#X floatatom 103 247 5 0 0 0 - - -;
#X floatatom 140 267 5 0 0 0 - - -;
#X floatatom 170 250 5 0 0 0 - - -;
#X floatatom 210 267 5 0 0 0 - - -;
#X floatatom 224 243 5 0 0 0 - - -;
#X floatatom 258 271 5 0 0 0 - - -;
#X floatatom 272 243 5 0 0 0 - - -;
#X floatatom 309 272 5 0 0 0 - - -;
#X obj 19 169 select 12;
#X text 187 65 if delay is more than some miliseconds reset to 0,
f 26;
#X obj 207 106 timer;
#X obj 209 131 > 5;
#X obj 240 136 sel 1;
#X obj 98 81 t b f b b;
#X obj 154 381 s sideButs;
#X obj 227 293 t b f;
#X obj 144 318 pack 0 f f f;
#X obj 143 353 route 0;
#X connect 2 0 0 0;
#X connect 2 0 26 0;
#X connect 2 1 1 0;
#X connect 3 0 4 1;
#X connect 4 0 3 0;
#X connect 4 0 6 0;
#X connect 4 0 7 0;
#X connect 5 0 4 0;
#X connect 6 0 21 0;
#X connect 7 0 8 0;
#X connect 8 0 9 0;
#X connect 8 1 10 0;
#X connect 8 2 11 0;
#X connect 8 3 12 0;
#X connect 8 4 13 0;
#X connect 8 5 14 0;
#X connect 8 5 29 1;
#X connect 8 6 15 0;
#X connect 8 6 29 2;
#X connect 8 7 16 0;
#X connect 8 7 28 0;
#X connect 8 8 17 0;
#X connect 8 9 18 0;
#X connect 8 10 19 0;
#X connect 8 11 20 0;
#X connect 21 0 5 0;
#X connect 23 0 24 0;
#X connect 24 0 25 0;
#X connect 25 0 5 0;
#X connect 26 0 4 0;
#X connect 26 1 7 1;
#X connect 26 2 23 0;
#X connect 26 3 23 1;
#X connect 28 0 29 0;
#X connect 28 1 29 3;
#X connect 29 0 30 0;
#X connect 30 0 27 0;
#X restore 307 14 pd raw_MIDI;
#X text 49 114 Tap tempo;
#X text 421 298 Create midi clock;
#X text 424 321 First give bpm \, with tap tempo \, or rotary \, or
midi clock in, f 43;
#X text 423 354 Select different note values \, 4 \, 8 \, 16 \, 8t
\, 16t \, 32 \, with rotary, f 52;
#N canvas 207 379 882 451 clock 0;
#X obj 208 178 bng 19 250 50 0 empty empty empty 0 -10 0 12 -262144
-1 -1;
#X text 197 151 Start;
#X obj 265 178 bng 19 250 50 0 empty empty empty 0 -10 0 12 -262144
-1 -1;
#X text 316 151 Stop;
#X obj 321 178 bng 19 250 50 0 empty empty empty 0 -10 0 12 -262144
-1 -1;
#X text 246 151 Continue;
#X obj 224 235 outlet;
#X obj 280 233 outlet;
#X obj 336 234 outlet;
#X obj 393 234 outlet;
#X obj 292 29 midirealtimein;
#X obj 411 33 sel 248 250 251 252;
#X obj 242 120 tgl 19 0 empty empty empty 0 -10 0 12 -262144 -1 -1
1 1;
#X text 151 120 Use MIDI in;
#X obj 460 150 loadbang;
#X obj 593 84 * 1;
#X msg 631 64 1;
#X obj 660 121 tgl 19 0 empty empty empty 0 -10 0 12 -262144 -1 -1
0 1;
#X text 693 116 Using MIDI in;
#X text 433 113 Default;
#X obj 621 43 spigot;
#X text 724 40 Assume midi time is available after first pulse, f
23;
#X msg 680 44 1;
#X obj 628 88 int 0;
#N canvas 299 262 450 300 switch 0;
#X obj 61 46 inlet;
#X obj 124 44 inlet;
#X obj 184 42 inlet;
#X text 44 17 Stream 1;
#X text 112 16 Stream 2;
#X text 179 16 Toggle 1 & 2;
#X obj 97 148 outlet;
#X obj 72 113 spigot;
#X obj 136 116 spigot;
#X obj 159 87 - 1;
#X connect 0 0 7 0;
#X connect 1 0 8 0;
#X connect 2 0 9 0;
#X connect 2 0 7 1;
#X connect 7 0 6 0;
#X connect 8 0 6 0;
#X connect 9 0 8 1;
#X restore 267 93 pd switch;
#N canvas 299 262 450 300 switch 0;
#X obj 61 46 inlet;
#X obj 124 44 inlet;
#X obj 184 42 inlet;
#X text 44 17 Stream 1;
#X text 112 16 Stream 2;
#X text 179 16 Toggle 1 & 2;
#X obj 97 148 outlet;
#X obj 72 113 spigot;
#X obj 136 116 spigot;
#X obj 159 87 - 1;
#X connect 0 0 7 0;
#X connect 1 0 8 0;
#X connect 2 0 9 0;
#X connect 2 0 7 1;
#X connect 7 0 6 0;
#X connect 8 0 6 0;
#X connect 9 0 8 1;
#X restore 343 92 pd switch;
#X text 276 51 Pulse;
#X text 356 50 Start;
#X text 509 49 Stop;
#X text 418 51 Continue;
#N canvas 299 262 450 300 switch 0;
#X obj 61 46 inlet;
#X obj 124 44 inlet;
#X obj 184 42 inlet;
#X text 44 17 Stream 1;
#X text 112 16 Stream 2;
#X text 179 16 Toggle 1 & 2;
#X obj 97 148 outlet;
#X obj 72 113 spigot;
#X obj 136 116 spigot;
#X obj 159 87 - 1;
#X connect 0 0 7 0;
#X connect 1 0 8 0;
#X connect 2 0 9 0;
#X connect 2 0 7 1;
#X connect 7 0 6 0;
#X connect 8 0 6 0;
#X connect 9 0 8 1;
#X restore 418 92 pd switch;
#N canvas 299 262 450 300 switch 0;
#X obj 61 46 inlet;
#X obj 124 44 inlet;
#X obj 184 42 inlet;
#X text 44 17 Stream 1;
#X text 112 16 Stream 2;
#X text 179 16 Toggle 1 & 2;
#X obj 97 148 outlet;
#X obj 72 113 spigot;
#X obj 136 116 spigot;
#X obj 159 87 - 1;
#X connect 0 0 7 0;
#X connect 1 0 8 0;
#X connect 2 0 9 0;
#X connect 2 0 7 1;
#X connect 7 0 6 0;
#X connect 8 0 6 0;
#X connect 9 0 8 1;
#X restore 491 92 pd switch;
#X text 368 6 MIDI in;
#X text 41 212 Own Clock;
#X text 355 117 BPM;
#X floatatom 312 118 5 0 0 0 - - -;
#X obj 29 236 expr (60000/$f1/24);
#X obj 64 305 metro 20.883;
#X obj 35 265 expr ($f1-1)*(-1);
#X obj 151 55 inlet;
#X obj 347 66 inlet;
#X obj 421 65 inlet;
#X obj 497 65 inlet;
#X obj 636 224 int 1;
#X obj 649 338 timer;
#X obj 686 223 + 1;
#X text 622 170 Calculate bpm;
#X obj 640 261 % 5;
#X obj 682 260 select 4;
#X msg 637 201 0;
#X obj 649 302 sel 1;
#X obj 709 303 sel 4;
#X obj 651 398 int;
#X obj 168 179 tgl 19 0 empty empty empty 0 -10 0 12 -262144 -1 -1
1 1;
#X obj 684 72 t b f;
#X obj 651 366 expr 1000/($f1/60)/8;
#X text 149 150 Clock;
#X msg 434 185 120, f 4;
#X text 69 404 This should be turned off when midi in is available
;
#X msg 92 341 1;
#X msg 88 370 0;
#X msg 657 13 0;
#X msg 423 156 1;
#X connect 0 0 7 0;
#X connect 0 0 59 0;
#X connect 2 0 8 0;
#X connect 4 0 9 0;
#X connect 4 0 60 0;
#X connect 10 0 11 0;
#X connect 11 0 20 0;
#X connect 11 0 24 0;
#X connect 11 0 43 0;
#X connect 11 1 25 0;
#X connect 11 2 30 0;
#X connect 11 3 31 0;
#X connect 12 0 54 0;
#X connect 14 0 62 0;
#X connect 14 0 57 0;
#X connect 14 0 61 0;
#X connect 15 0 17 0;
#X connect 15 0 31 2;
#X connect 15 0 30 2;
#X connect 15 0 25 2;
#X connect 15 0 24 2;
#X connect 15 0 38 0;
#X connect 16 0 23 0;
#X connect 20 0 22 0;
#X connect 20 0 16 0;
#X connect 22 0 20 1;
#X connect 23 0 15 0;
#X connect 24 0 6 0;
#X connect 25 0 0 0;
#X connect 30 0 2 0;
#X connect 31 0 4 0;
#X connect 35 0 36 0;
#X connect 36 0 37 1;
#X connect 37 0 24 1;
#X connect 38 0 53 0;
#X connect 39 0 35 0;
#X connect 40 0 25 1;
#X connect 41 0 30 1;
#X connect 42 0 31 1;
#X connect 43 0 45 0;
#X connect 43 0 47 0;
#X connect 44 0 55 0;
#X connect 45 0 43 1;
#X connect 47 0 48 0;
#X connect 47 0 50 0;
#X connect 48 0 49 0;
#X connect 49 0 43 0;
#X connect 50 0 44 0;
#X connect 50 1 51 0;
#X connect 51 0 44 1;
#X connect 52 0 35 0;
#X connect 53 0 37 0;
#X connect 54 0 15 0;
#X connect 54 1 15 1;
#X connect 55 0 52 0;
#X connect 57 0 35 0;
#X connect 59 0 53 0;
#X connect 60 0 53 0;
#X connect 61 0 20 1;
#X connect 62 0 12 0;
#X coords 0 -1 1 1 300 100 1 100 100;
#X restore 29 228 pd clock;
#N canvas 163 142 813 557 set 0;
#X obj 314 83 inlet;
#X obj 314 205 realtime;
#X obj 314 109 t b b;
#X obj 153 201 +;
#X obj 126 200 f;
#X msg 153 159 1;
#X obj 359 178 spigot;
#X obj 126 285 > 1;
#X obj 618 330 sel 1;
#X msg 126 159 0;
#X obj 642 195 metro 1;
#X obj 642 251 +;
#X obj 618 251 f;
#X msg 642 215 1;
#X msg 614 215 0;
#X obj 172 255 sel 1;
#X obj 642 170 tgl 15 0 empty empty empty 17 7 0 10 -262144 -1 -1 0
1;
#X obj 314 350 +;
#X obj 288 350 f;
#X obj 618 282 spigot;
#X obj 288 402 /;
#X obj 199 361 - 1;
#X obj 305 506 outlet;
#X obj 275 86 bng 15 250 50 0 empty empty empty 17 7 0 10 -262144 -1
-1;
#X floatatom 410 502 12 0 0 0 - - -;
#X obj 126 306 s TAP_not_first;
#X obj 392 156 r TAP_not_first;
#X obj 671 253 r TAP_not_first;
#X obj 172 277 s TAP_start;
#X obj 642 148 r TAP_start;
#X obj 288 439 sel 0;
#X obj 618 311 > 3000;
#X obj 618 351 s TAP_finish;
#X obj 614 125 r TAP_finish;
#X obj 126 136 r TAP_finish;
#X msg 288 329 0;
#X obj 288 306 r TAP_finish;
#X text 500 24 A timer gets triggered and reset every time;
#X text 499 38 the inlet receives a bang. If nothing happens;
#X text 498 53 afterwards for 3000 ms \, the "tempo" is considered
;
#X text 498 68 definitive \, and everything gets reset.;
#X text 498 90 comment;
#X text 12 189 Count the number;
#X text 12 201 of bangs received.;
#X text 385 199 Measure the time between;
#X text 385 212 two bangs (making sure that;
#X text 386 223 we only start measuring at;
#X text 386 235 the second bang).;
#X text 358 342 Sum the measured durations...;
#X text 336 403 ... and divide it by the number of bangs-1;
#X text 336 417 to get the average time between 2 bangs.;
#X text 558 490 Pierre Massat \, Guitar Extended \, 2013;
#X text 6 2 "Tap tempo" : we don't measure the tempo;
#X text 5 16 here \, but the duration between 2 beats (bangs).;
#X text 5 30 This is used later to set the length of the loop.;
#X obj 286 472 expr 1000/($f1/60);
#X connect 0 0 2 0;
#X connect 1 0 17 0;
#X connect 2 0 1 0;
#X connect 2 1 5 0;
#X connect 2 1 6 0;
#X connect 2 1 14 0;
#X connect 3 0 4 0;
#X connect 4 0 3 1;
#X connect 4 0 7 0;
#X connect 4 0 21 0;
#X connect 4 0 15 0;
#X connect 5 0 3 0;
#X connect 6 0 1 1;
#X connect 7 0 25 0;
#X connect 8 0 32 0;
#X connect 9 0 4 0;
#X connect 10 0 13 0;
#X connect 11 0 12 0;
#X connect 12 0 11 1;
#X connect 12 0 19 0;
#X connect 13 0 11 0;
#X connect 14 0 12 0;
#X connect 15 0 28 0;
#X connect 16 0 10 0;
#X connect 17 0 18 0;
#X connect 18 0 17 1;
#X connect 18 0 20 0;
#X connect 19 0 31 0;
#X connect 20 0 30 0;
#X connect 21 0 20 1;
#X connect 23 0 2 0;
#X connect 26 0 6 1;
#X connect 27 0 19 1;
#X connect 29 0 16 0;
#X connect 30 1 55 0;
#X connect 31 0 8 0;
#X connect 33 0 16 0;
#X connect 34 0 9 0;
#X connect 35 0 18 0;
#X connect 36 0 35 0;
#X connect 55 0 22 0;
#X connect 55 0 24 0;
#X restore 29 183 pd set tempo;
#N canvas 64 64 450 300 flash 0;
#X obj 121 51 r btn-flash;
#X obj 127 123 midiout;
#X msg 89 88 240 \, 66 \, 64 \, 110 \, 8 \, 1 \, \$1 \, 68 \, 247;
#X connect 0 0 2 0;
#X connect 2 0 1 0;
#X restore 415 10 pd flash;
#X obj 13 149 bng 19 250 50 0 empty empty empty 0 -10 0 12 -262144
-1 -1;
#N canvas 368 172 450 300 message_btn 0;
#X obj 190 119 route 72 67;
#X obj 192 143 route 1;
#X obj 195 170 / 127;
#X text 181 64 message button;
#X obj 329 168 s btn-flash;
#X msg 294 168 17;
#X obj 192 210 outlet;
#X obj 189 96 r sideButs;
#X obj 246 169 sel 1;
#X connect 0 0 1 0;
#X connect 1 0 2 0;
#X connect 2 0 6 0;
#X connect 2 0 8 0;
#X connect 5 0 4 0;
#X connect 7 0 0 0;
#X connect 8 0 5 0;
#X restore 51 133 pd message_btn;
#X obj 159 417 clone LoopPlayer 16;
#X obj 132 383 adc~;
#X obj 250 386 pack f f;
#N canvas 192 192 450 300 light_on 0;
#X msg 102 65 240 \, 66 \, 64 \, 110 \, 8 \, 1 \, \$1 \, 32 \, 247
;
#X obj 105 102 midiout;
#X obj 100 16 r btn-on;
#X connect 0 0 1 0;
#X connect 2 0 0 0;
#X restore 494 12 pd light_on;
#N canvas 224 224 450 300 light_off 0;
#X obj 105 102 midiout;
#X msg 68 54 240 \, 66 \, 64 \, 110 \, 8 \, 1 \, \$1 \, 0 \, 247;
#X obj 100 16 r btn-off;
#X connect 1 0 0 0;
#X connect 2 0 1 0;
#X restore 586 13 pd light_off;
#X obj 36 342 s MIDIpulse;
#X text 414 70 Beats;
#N canvas 190 200 735 485 beat_devision 0;
#X obj 157 231 route 0 1 2 3 4 5 6;
#X obj 126 315 expr 4*24/$f1;
#X obj 140 344 s PPB;
#X obj 269 315 expr 24*8/3/$f1;
#X msg 123 264 4;
#X msg 153 264 8;
#X msg 183 264 16;
#X msg 123 289 4;
#X msg 153 289 8;
#X msg 183 289 16;
#X msg 213 264 32;
#X msg 213 289 32;
#X msg 256 289 4;
#X msg 287 289 8;
#X msg 314 289 16;
#X obj 330 199 + 1;
#X obj 364 199 - 1;
#X obj 323 139 select 1 127;
#X obj 348 232 max 0;
#X msg 256 264 4t;
#X msg 285 264 8t;
#X msg 314 264 16t;
#X obj 410 283 s lcd;
#X obj 477 283 symbol;
#X obj 201 195 min 6;
#X msg 29 284 symbol \$1^;
#X obj 303 85 spigot;
#X obj 449 53 route 2 15 12 11;
#X obj 443 89 / 127;
#X obj 478 86 / 127;
#X obj 520 88 / 127;
#X obj 567 88 / 127;
#X obj 441 122 tgl 19 0 empty empty empty 0 -10 0 12 -262144 -1 -1
0 1;
#X obj 484 118 tgl 19 0 empty empty empty 0 -10 0 12 -262144 -1 -1
0 1;
#X obj 526 120 tgl 19 0 empty empty empty 0 -10 0 12 -262144 -1 -1
0 1;
#X obj 563 121 tgl 19 0 empty empty empty 0 -10 0 12 -262144 -1 -1
0 1;
#X obj 468 165 +;
#X obj 529 172 +;
#X obj 483 142 t b f;
#X obj 527 143 t b f;
#X obj 575 144 t b f;
#X obj 575 171 +;
#X obj 580 232 tgl 19 0 empty empty empty 0 -10 0 12 -262144 -1 -1
1 1;
#X text 611 228 Nothing pressed;
#X obj 301 8 r sideButs;
#X text 217 44 Encoder;
#X obj 92 188 loadbang;
#X symbolatom 108 118 10 0 0 0 - - -;
#X obj 275 147 f 0;
#X obj 330 168 f 0;
#X obj 364 167 f 0;
#X msg 158 195 0;
#X obj 300 40 route 72 67;
#X obj 306 112 route 0;
#X obj 573 202 == 0;
#X obj 474 220 loadbang;
#X msg 529 250 1;
#X connect 0 0 4 0;
#X connect 0 1 5 0;
#X connect 0 2 6 0;
#X connect 0 3 10 0;
#X connect 0 4 19 0;
#X connect 0 5 20 0;
#X connect 0 6 21 0;
#X connect 1 0 2 0;
#X connect 3 0 2 0;
#X connect 4 0 7 0;
#X connect 4 0 22 0;
#X connect 4 0 25 0;
#X connect 5 0 8 0;
#X connect 5 0 22 0;
#X connect 5 0 25 0;
#X connect 6 0 9 0;
#X connect 6 0 22 0;
#X connect 6 0 25 0;
#X connect 7 0 1 0;
#X connect 8 0 1 0;
#X connect 9 0 1 0;
#X connect 10 0 11 0;
#X connect 10 0 22 0;
#X connect 10 0 25 0;
#X connect 12 0 3 0;
#X connect 13 0 3 0;
#X connect 14 0 3 0;
#X connect 15 0 18 0;
#X connect 16 0 18 0;
#X connect 17 0 49 0;
#X connect 17 1 50 0;
#X connect 18 0 24 0;
#X connect 19 0 12 0;
#X connect 19 0 23 0;
#X connect 19 0 22 0;
#X connect 20 0 13 0;
#X connect 20 0 22 0;
#X connect 20 0 23 0;
#X connect 21 0 14 0;
#X connect 21 0 22 0;
#X connect 21 0 23 0;
#X connect 23 0 47 0;
#X connect 24 0 0 0;
#X connect 24 0 48 0;
#X connect 25 0 47 0;
#X connect 26 0 53 0;
#X connect 27 0 28 0;
#X connect 27 1 29 0;
#X connect 27 2 30 0;
#X connect 27 3 31 0;
#X connect 28 0 32 0;
#X connect 29 0 33 0;
#X connect 30 0 34 0;
#X connect 31 0 35 0;
#X connect 32 0 36 0;
#X connect 33 0 38 0;
#X connect 34 0 39 0;
#X connect 35 0 40 0;
#X connect 36 0 37 0;
#X connect 37 0 41 0;
#X connect 38 0 36 0;
#X connect 38 1 36 1;
#X connect 39 0 37 0;
#X connect 39 1 37 1;
#X connect 40 0 41 0;
#X connect 40 1 41 1;
#X connect 41 0 54 0;
#X connect 42 0 26 1;
#X connect 44 0 52 0;
#X connect 46 0 51 0;
#X connect 48 0 49 1;
#X connect 48 0 50 1;
#X connect 49 0 15 0;
#X connect 50 0 16 0;
#X connect 51 0 0 0;
#X connect 52 0 27 0;
#X connect 52 1 26 0;
#X connect 53 0 17 0;
#X connect 54 0 42 0;
#X connect 55 0 56 0;
#X connect 56 0 42 0;
#X coords 0 -1 1 1 85 60 1 100 100;
#X restore 390 104 pd beat_devision;
#N canvas 649 82 483 777 LCD 0;
#N canvas 1 142 214 196 list-drip 0;
#X obj 42 23 inlet;
#X obj 38 139 list store;
#X obj 42 69 until;
#X obj 42 92 f;
#X obj 72 92 + 1;
#X msg 38 116 get \$1 1;
#X obj 88 67 0;
#X obj 38 162 outlet;
#X obj 101 168 outlet;
#X obj 42 46 t b b a;
#X connect 0 0 9 0;
#X connect 1 0 7 0;
#X connect 1 1 8 0;
#X connect 1 1 2 1;
#X connect 2 0 3 0;
#X connect 3 0 5 0;
#X connect 3 0 4 0;
#X connect 4 0 3 1;
#X connect 5 0 1 0;
#X connect 6 0 3 1;
#X connect 9 0 2 0;
#X connect 9 1 6 0;
#X connect 9 2 1 1;
#X restore 43 84 pd list-drip;
#X obj 43 107 route float symbol;
#X obj 43 130 makefilename %d;
#X obj 43 153 list fromsymbol;
#X obj 43 176 list 32;
#X obj 43 222 list trim;
#X obj 43 245 list store;
#X obj 43 268 t l l;
#X obj 43 337 list split;
#X obj 110 291 list length;
#X obj 110 314 - 1;
#X obj 43 61 t a b;
#X obj 26 507 f;
#X obj 58 506 - 1;
#X obj 25 478 until;
#X msg 21 559 get \$1 1;
#X obj 18 586 list store;
#X obj 43 199 list prepend append;
#X obj 11 396 list length;
#X obj 239 375 * -1;
#X obj 42 646 list store;
#X msg 26 614 append \$1;
#X msg 247 575 append 41;
#X obj 289 506 f;
#X obj 321 505 - 1;
#X obj 286 480 until;
#X obj 355 508 sel 0;
#X obj 332 480 2;
#X obj 41 367 t b l l;
#X obj 298 442 t b b f;
#X obj 45 31 r lcd;
#X msg 40 712 240 \, 66 \, 64 \, 110 \, 8 \, 34 \, 4 \, 0 \, \$3 \,
\$2 \, \$1 \, 247;
#X obj 71 746 midiout;
#X obj 270 408 sel 0;
#X obj 320 408 - 1;
#X obj 241 345 - 3;
#X obj 43 428 - 1;
#X obj 77 425 sel 0;
#X obj 44 455 t b b f;
#X obj 78 480 2;
#X obj 97 505 sel 0;
#X text 109 369 reverse;
#X text 250 321 Fill with spaces;
#X obj 113 392 min 3;
#X obj 195 524 t b b;
#X obj 286 376 int;
#X obj 95 538 sel 0;
#X obj 28 533 t f f;
#X obj 169 388 t f f;
#X obj 308 535 t f f;
#X obj 263 535 sel 0;
#X text 340 100 lcd state;
#X obj 253 63 r getlcdstate;
#X obj 241 126 s lcdstate;
#X obj 246 97 list store;
#X connect 0 0 1 0;
#X connect 0 1 6 0;
#X connect 1 0 2 0;
#X connect 1 1 3 0;
#X connect 2 0 3 0;
#X connect 3 0 4 0;
#X connect 4 0 17 0;
#X connect 5 0 6 0;
#X connect 6 0 7 0;
#X connect 7 0 8 0;
#X connect 7 1 9 0;
#X connect 8 0 28 0;
#X connect 9 0 10 0;
#X connect 10 0 8 1;
#X connect 11 0 0 0;
#X connect 11 1 6 1;
#X connect 12 0 13 0;
#X connect 12 0 40 0;
#X connect 12 0 47 0;
#X connect 13 0 12 1;
#X connect 14 0 12 0;
#X connect 15 0 16 0;
#X connect 16 0 21 0;
#X connect 17 0 5 0;
#X connect 18 0 43 0;
#X connect 19 0 45 1;
#X connect 20 0 31 0;
#X connect 21 0 20 0;
#X connect 22 0 20 0;
#X connect 23 0 24 0;
#X connect 23 0 26 0;
#X connect 23 0 49 0;
#X connect 24 0 23 1;
#X connect 25 0 23 0;
#X connect 26 0 25 1;
#X connect 27 0 23 1;
#X connect 28 1 18 0;
#X connect 28 2 16 1;
#X connect 29 0 25 0;
#X connect 29 1 27 0;
#X connect 29 2 27 1;
#X connect 30 0 11 0;
#X connect 30 0 54 1;
#X connect 31 0 32 0;
#X connect 33 0 44 0;
#X connect 33 1 34 0;
#X connect 34 0 29 0;
#X connect 35 0 19 0;
#X connect 36 0 38 0;
#X connect 37 0 45 0;
#X connect 37 1 36 0;
#X connect 38 0 14 0;
#X connect 38 1 39 0;
#X connect 38 2 39 1;
#X connect 39 0 12 1;
#X connect 40 0 14 1;
#X connect 43 0 48 0;
#X connect 44 0 20 1;
#X connect 44 1 20 0;
#X connect 45 0 33 0;
#X connect 46 0 45 0;
#X connect 47 0 46 0;
#X connect 47 1 15 0;
#X connect 48 0 37 0;
#X connect 48 1 35 0;
#X connect 49 0 50 0;
#X connect 49 1 22 0;
#X connect 50 0 44 0;
#X connect 52 0 54 0;
#X connect 54 0 53 0;
#X restore 691 15 pd LCD;
#N canvas 285 521 450 300 pulse2beats 0;
#X obj 28 22 r MIDIpulse;
#X obj 116 238 s beatpulse;
#X obj 155 27 r PPB;
#X obj 104 116 int 0;
#X obj 171 115 + 1;
#X obj 159 176 sel 23;
#X obj 211 126 - 1;
#X obj 152 58 t b b f;
#X floatatom 230 166 5 0 0 0 - - -;
#X obj 144 85 0;
#X obj 124 146 t f f;
#X obj 127 208 t b b b;
#X msg 207 211 17;
#X obj 253 212 s btn-flash;
#X obj 281 51 route 72 67;
#X obj 283 75 route 1;
#X obj 286 102 / 127;
#X text 292 131 message button;
#X obj 280 28 r sideButs;
#X obj 337 101 sel 0;
#X connect 0 0 3 0;
#X connect 2 0 7 0;
#X connect 3 0 10 0;
#X connect 4 0 3 1;
#X connect 5 0 11 0;
#X connect 6 0 5 1;
#X connect 6 0 8 0;
#X connect 7 1 9 0;
#X connect 7 2 6 0;
#X connect 9 0 3 1;
#X connect 10 0 5 0;
#X connect 10 1 4 0;
#X connect 11 0 1 0;
#X connect 11 1 9 0;
#X connect 11 2 12 0;
#X connect 12 0 13 0;
#X connect 14 0 15 0;
#X connect 15 0 16 0;
#X connect 16 0 19 0;
#X connect 18 0 14 0;
#X connect 19 0 9 0;
#X restore 520 113 pd pulse2beats;
#N canvas 228 301 588 455 loop_length 0;
#X obj 203 41 route 72 67;
#X obj 201 175 select 1 127;
#X obj 435 50 / 127;
#X msg 470 126 18;
#X obj 470 153 s btn-off;
#X obj 364 206 s btn-on;
#X obj 202 231 + 1;
#X obj 235 230 - 1;
#X obj 202 200 f;
#X obj 235 198 f;
#X floatatom 134 124 5 0 0 0 - - -;
#X obj 145 218 f 4;
#X obj 138 255 min 24;
#X obj 465 237 r lcdstate;
#X obj 319 150 s getlcdstate;
#X obj 457 264 spigot;
#X obj 389 341 s lcd;
#X obj 37 266 s LoopLength;
#X obj 54 319 s lcd;
#X obj 377 306 list store;
#X obj 336 70 tgl 19 0 empty empty empty 0 -10 0 12 -262144 -1 -1 0
1;
#X text 299 40 setting btn held;
#X obj 195 103 spigot;
#X obj 196 268 max 1;
#X msg 365 179 18;
#X text 517 35 setting;
#X text 120 65 encoder;
#X obj 211 7 r sideButs;
#X msg 480 180 1;
#X msg 476 208 0;
#X obj 542 208 tgl 19 0 empty empty empty 0 -10 0 12 -262144 -1 -1
0 1;
#X obj 134 184 loadbang;
#X obj 373 87 select 0;
#X obj 194 72 route 0;
#X obj 436 23 route 2;
#X obj 314 121 t b b b b;
#X obj 469 88 t b b;
#X obj 386 121 delay 2;
#X obj 415 279 t b l;
#X connect 0 0 34 0;
#X connect 0 1 33 0;
#X connect 1 0 8 0;
#X connect 1 1 9 0;
#X connect 2 0 20 0;
#X connect 3 0 4 0;
#X connect 6 0 23 0;
#X connect 7 0 23 0;
#X connect 8 0 6 0;
#X connect 9 0 7 0;
#X connect 11 0 8 1;
#X connect 11 0 9 1;
#X connect 11 0 10 0;
#X connect 11 0 17 0;
#X connect 11 0 18 0;
#X connect 12 0 11 0;
#X connect 13 0 15 0;
#X connect 15 0 38 0;
#X connect 19 0 16 0;
#X connect 20 0 22 1;
#X connect 20 0 32 0;
#X connect 22 0 1 0;
#X connect 23 0 12 0;
#X connect 24 0 5 0;
#X connect 27 0 0 0;
#X connect 28 0 30 0;
#X connect 29 0 30 0;
#X connect 30 0 15 1;
#X connect 31 0 11 0;
#X connect 32 0 36 0;
#X connect 32 1 35 0;
#X connect 33 0 22 0;
#X connect 34 0 2 0;
#X connect 35 0 37 0;
#X connect 35 1 14 0;
#X connect 35 2 28 0;
#X connect 35 3 24 0;
#X connect 36 0 19 0;
#X connect 36 1 3 0;
#X connect 37 0 29 0;
#X connect 38 0 11 0;
#X connect 38 1 19 1;
#X coords 0 -1 1 1 120 60 1 100 100;
#X restore 239 104 pd loop_length;
#X obj 101 471 dac~ 0;
#X obj 221 463 hsl 162 19 0 127 0 0 empty empty empty -2 -10 0 12 -262144
-1 -1 10142 1;
#N canvas 224 224 450 300 knob1 0;
#X obj 138 113 route 73 72;
#X obj 138 146 route 0 1;
#X obj 214 147 route 13 14;
#X obj 272 180 / 127;
#X obj 221 181 / 127;
#X obj 138 84 r sideButs;
#X text 236 209 knob assign;
#X obj 113 207 outlet;
#X connect 0 0 1 0;
#X connect 0 1 2 0;
#X connect 1 0 7 0;
#X connect 2 0 4 0;
#X connect 2 1 3 0;
#X connect 5 0 0 0;
#X restore 321 435 pd knob1;
#X obj 173 466 / 127;
#X obj 101 445 *~ 1;
#X text 223 442 Volume;
#N canvas 416 266 410 317 pads 0;
#X obj 127 20 r sideButs;
#X obj 125 52 route 69;
#X obj 130 164 / 64;
#X floatatom 139 220 5 0 0 0 - - -;
#X obj 122 91 unpack f f;
#X floatatom 209 218 5 0 0 0 - - -;
#X obj 131 193 int;
#X obj 34 183 mod 64;
#X floatatom 37 209 5 0 0 0 - - -;
#X obj 56 117 t f f;
#X obj 31 248 outlet;
#X obj 120 248 outlet;
#X obj 197 247 outlet;
#X text 32 271 pad no;
#X text 117 274 on/off;
#X text 200 275 velocity;
#X text 264 223 maybe multiply if I want velocity, f 17;
#X connect 0 0 1 0;
#X connect 1 0 4 0;
#X connect 2 0 6 0;
#X connect 4 0 9 0;
#X connect 4 1 5 0;
#X connect 4 1 12 0;
#X connect 6 0 3 0;
#X connect 6 0 11 0;
#X connect 7 0 8 0;
#X connect 7 0 10 0;
#X connect 9 0 7 0;
#X connect 9 1 2 0;
#X restore 256 333 pd pads;
#X obj 52 158 sel 0 1;
#X connect 2 0 1 0;
#X connect 8 0 18 0;
#X connect 9 0 8 0;
#X connect 11 0 9 0;
#X connect 12 0 31 0;
#X connect 13 0 28 0;
#X connect 14 0 13 0;
#X connect 15 0 13 1;
#X connect 25 0 27 0;
#X connect 26 0 25 0;
#X connect 27 0 28 1;
#X connect 28 0 24 0;
#X connect 30 0 15 0;
#X connect 30 1 15 1;
#X connect 31 1 9 0;
